<?xml version="1.0" standalone="no"?>
<!DOCTYPE svg PUBLIC "-//W3C//DTD SVG 1.1//EN" "http://www.w3.org/Graphics/SVG/1.1/DTD/svg11.dtd" >
<svg xmlns="http://www.w3.org/2000/svg" xmlns:xlink="http://www.w3.org/1999/xlink" version="1.1">
<metadata>
Created by FontForge 20201107 at Thu Sep  3 15:23:58 2015
 By Jimmy Wärting
Copyright (c) Mark Simonson, 2010. All rights reserved.
</metadata>
<defs>
<font id="ProximaNovaSoftW03-Medium" horiz-adv-x="573" >
  <font-face 
    font-family="ProximaNovaSoftW03-Medium"
    font-weight="500"
    font-stretch="normal"
    units-per-em="1000"
    panose-1="2 0 5 6 3 0 0 2 0 4"
    ascent="800"
    descent="-200"
    x-height="483"
    cap-height="673"
    bbox="-96 -196 1064 891"
    underline-thickness="50"
    underline-position="-175"
    unicode-range="U+000D-FB02"
  />
<missing-glyph horiz-adv-x="501" 
d="M426 -58q0 -13 -10 -22.5t-22 -9.5h-287q-14 0 -23 9.5t-9 22.5v778q0 13 9 22.5t23 9.5h287q12 0 22 -9.5t10 -22.5v-778zM394 -60v782h-288v-782h288z" />
    <glyph glyph-name="uniFB01" unicode="fi" horiz-adv-x="528" 
d="M411 662q24 0 40.5 -17t16.5 -41t-16.5 -40.5t-40.5 -16.5q-23 0 -40 16.5t-17 40.5t17 41t40 17zM456 38q0 -18 -13 -31t-32 -13q-18 0 -31 13t-13 31v408q0 17 13 30t33 13q17 0 30 -13t13 -30v-408zM315 638q0 -15 -8 -26t-24 -11q-5 0 -11.5 2t-15.5 2
q-34 0 -53 -22.5t-19 -65.5v-34h66q16 0 27 -11t11 -27q0 -17 -11 -28.5t-27 -11.5h-66v-367q0 -18 -13 -31t-31 -13q-19 0 -32 12.5t-13 31.5v367h-48q-17 0 -27.5 11t-10.5 28q0 16 10.5 27.5t27.5 11.5h48v34q0 38 10.5 68t30 50t46 31t59.5 11q13 0 26 -1.5t24 -5.5
t17.5 -11.5t6.5 -20.5z" />
    <glyph glyph-name="uniFB02" unicode="fl" horiz-adv-x="528" 
d="M456 38q0 -18 -13 -31t-32 -13q-18 0 -31 13t-13 31v592q0 17 13 30t33 13q17 0 30 -13t13 -30v-592zM315 638q0 -15 -8 -26t-24 -11q-5 0 -11.5 2t-15.5 2q-34 0 -53 -22.5t-19 -65.5v-34h66q16 0 27 -11t11 -27q0 -17 -11 -28.5t-27 -11.5h-66v-367q0 -18 -13 -31
t-31 -13q-19 0 -32 12.5t-13 31.5v367h-48q-17 0 -27.5 11t-10.5 28q0 16 10.5 27.5t27.5 11.5h48v34q0 38 10.5 68t30 50t46 31t59.5 11q13 0 26 -1.5t24 -5.5t17.5 -11.5t6.5 -20.5z" />
    <glyph glyph-name=".notdef" horiz-adv-x="501" 
d="M426 -58q0 -13 -10 -22.5t-22 -9.5h-287q-14 0 -23 9.5t-9 22.5v778q0 13 9 22.5t23 9.5h287q12 0 22 -9.5t10 -22.5v-778zM394 -60v782h-288v-782h288z" />
    <glyph glyph-name=".null" horiz-adv-x="0" 
 />
    <glyph glyph-name="uni000D" unicode="&#xd;" horiz-adv-x="257" 
 />
    <glyph glyph-name="glyph227" horiz-adv-x="0" 
 />
    <glyph glyph-name="glyph227" horiz-adv-x="0" 
 />
    <glyph glyph-name="space" unicode=" " horiz-adv-x="257" 
 />
    <glyph glyph-name="exclam" unicode="!" horiz-adv-x="237" 
d="M172 620q0 -2 -1 -29.5t-2.5 -68.5t-3.5 -90t-3.5 -92t-2.5 -75t-2 -39q-1 -16 -12 -26.5t-27 -10.5t-27 10.5t-12 26.5q0 7 -1 39t-2.5 75t-3.5 92t-3.5 90t-2.5 68.5t-1 29.5q-1 22 15 37.5t39 15.5t38 -15.5t15 -37.5zM180 52q0 -13 -5 -24t-13 -19.5t-19.5 -13.5
t-24.5 -5q-12 0 -23.5 5t-19.5 13.5t-13 19.5t-5 24q0 25 18 43.5t43 18.5q26 0 44 -18.5t18 -43.5z" />
    <glyph glyph-name="quotedbl" unicode="&#x22;" horiz-adv-x="360" 
d="M309 625q0 -4 -3 -30t-7.5 -59t-9 -67t-8.5 -54q-1 -8 -7.5 -13.5t-17.5 -5.5q-8 0 -14.5 5.5t-7.5 13.5q-3 20 -7.5 54t-9 67t-8 59t-3.5 30q0 22 15 37t37 15t36.5 -15t14.5 -37zM155 625q0 -4 -3.5 -30t-8 -59t-9 -66.5t-7.5 -53.5q-1 -9 -8 -14.5t-17 -5.5
q-8 0 -14.5 5.5t-8.5 14.5q-3 20 -7.5 53.5t-9 66.5t-8 59t-3.5 30q0 22 15 37t37 15t37 -15t15 -37z" />
    <glyph glyph-name="numbersign" unicode="#" horiz-adv-x="598" 
d="M571 457q0 -12 -8.5 -20.5t-20.5 -8.5h-88l-64 -190h72q12 0 20.5 -9t8.5 -21q0 -13 -8.5 -21.5t-20.5 -8.5h-93l-53 -162q-4 -10 -12.5 -16.5t-19.5 -6.5q-15 0 -24.5 9.5t-9.5 22.5q0 3 0.5 5.5t1.5 5.5l49 142h-107l-54 -162q-4 -11 -12.5 -17t-19.5 -6q-16 0 -25 10
t-9 23q0 4 2 10l48 142h-66q-12 0 -20.5 9t-8.5 23q0 11 8.5 19.5t20.5 8.5h87l62 190h-69q-12 0 -20.5 9t-8.5 22t8.5 21t20.5 8h90l54 163q3 10 12 16t20 6q15 0 24 -10t9 -22q0 -6 -1 -10l-47 -143h105l54 163q4 10 12.5 16t19.5 6q15 0 24 -10t9 -22q0 -6 -1 -10
l-49 -143h69q12 0 20.5 -8.5t8.5 -22.5zM383 428h-106l-62 -190h105z" />
    <glyph glyph-name="dollar" unicode="$" horiz-adv-x="599" 
d="M553 189q0 -36 -12 -70t-37.5 -61t-66 -45.5t-97.5 -22.5v-62q0 -14 -10 -24t-24 -10q-16 0 -26 10t-10 24v61q-32 3 -62 9.5t-57 17t-49.5 25t-39.5 32.5q-6 6 -9 14t-3 16q0 19 13 34t32 15q16 0 28 -10q29 -24 66 -41.5t81 -23.5v221q-39 10 -76.5 23t-67.5 34t-48 53
t-18 79q0 39 15 72t42.5 57.5t66.5 40t86 19.5v64q0 14 10 24t26 10q14 0 24 -10t10 -24v-66q25 -3 49 -8t46 -13.5t42 -20.5t37 -28q12 -12 12 -30q0 -9 -4 -18t-10.5 -15.5t-15.5 -10t-18 -3.5q-13 0 -23 7q-27 20 -55.5 32.5t-59.5 17.5v-196q39 -11 77 -25t68.5 -36
t49 -55.5t18.5 -82.5zM270 406v182q-49 -4 -78.5 -29t-29.5 -65q0 -18 8 -32t22.5 -23.5t34 -17.5t43.5 -15zM452 179q0 21 -9 37t-24 27.5t-35.5 20t-43.5 15.5v-202q31 4 52.5 14.5t34.5 24.5t19 30.5t6 32.5z" />
    <glyph glyph-name="percent" unicode="%" horiz-adv-x="738" 
d="M356 510q0 -35 -12 -65t-33.5 -51.5t-51.5 -34t-67 -12.5q-36 0 -66.5 12.5t-51.5 34t-32.5 51.5t-11.5 65t11.5 66t32.5 53.5t51.5 35t66.5 12.5q37 0 67 -12.5t51.5 -35t33.5 -53.5t12 -66zM192 4q-8 -11 -20 -11q-11 0 -19 7.5t-8 17.5q0 8 5 14l402 630q7 11 21 11
q10 0 17.5 -8t7.5 -18q0 -7 -3 -12zM709 152q0 -35 -12 -65t-33.5 -52t-51.5 -34.5t-67 -12.5q-36 0 -66 12.5t-51.5 34.5t-33 52t-11.5 65t11.5 65.5t33 53t51.5 35t66 12.5q37 0 67 -12.5t51.5 -35t33.5 -53t12 -65.5zM98 510q0 -45 26 -75t68 -30q21 0 38.5 8t30.5 22
t20 33.5t7 41.5q0 48 -27 78t-69 30t-68 -30t-26 -78zM450 152q0 -23 7 -42.5t19.5 -33.5t30 -22t38.5 -8t39 8t30.5 22t19.5 33.5t7 42.5q0 47 -27 77.5t-69 30.5t-68.5 -30.5t-26.5 -77.5z" />
    <glyph glyph-name="ampersand" unicode="&#x26;" horiz-adv-x="642" 
d="M490 128q12 -13 25 -25t24.5 -23.5t18.5 -22.5t7 -21q0 -16 -11.5 -29t-30.5 -13q-11 0 -23 8t-24 19t-23 23t-20 21q-37 -35 -83.5 -56t-105.5 -21q-44 0 -82.5 11.5t-67 35.5t-45 59t-16.5 82q0 39 12 68.5t32 53t46.5 42t55.5 32.5q-23 38 -36 76t-13 73q0 33 13 61.5
t36.5 49.5t55.5 33t69 12q33 0 62 -9t50 -26t33 -42t12 -57q0 -38 -14.5 -65.5t-38 -49.5t-53.5 -39t-62 -32q21 -30 40 -53.5t36.5 -43.5t34.5 -38.5t34 -37.5q18 29 32.5 59t24.5 56q5 11 15 17.5t22 6.5q17 0 28.5 -12t11.5 -27q0 -9 -5 -19q-7 -16 -16 -34t-19 -35.5
t-20.5 -35t-21.5 -32.5zM128 183q0 -29 10.5 -52t28 -38.5t40 -24t47.5 -8.5q38 0 69.5 16t58.5 42q-34 36 -57 61t-41.5 46.5t-34 42.5t-33.5 47q-38 -24 -63 -54.5t-25 -77.5zM308 609q-18 0 -34 -6.5t-27.5 -18.5t-18.5 -28.5t-7 -36.5q0 -24 10.5 -52.5t26.5 -55.5
q25 12 47.5 25t39.5 28.5t26.5 33.5t9.5 41q0 34 -21 52t-52 18z" />
    <glyph glyph-name="quotesingle" unicode="'" horiz-adv-x="206" 
d="M155 625q0 -4 -3.5 -30t-8 -59t-9 -66.5t-7.5 -53.5q-1 -9 -8 -14.5t-17 -5.5q-8 0 -14.5 5.5t-8.5 14.5q-3 20 -7.5 53.5t-9 66.5t-8 59t-3.5 30q0 22 15 37t37 15t37 -15t15 -37z" />
    <glyph glyph-name="parenleft" unicode="(" horiz-adv-x="261" 
d="M237 -152q0 -14 -10.5 -26t-27.5 -12q-8 0 -15 3.5t-13 10.5q-30 44 -54 94t-40.5 103.5t-25 109.5t-8.5 112t9 112t25 109.5t40 104t55 94.5q5 6 12 10t16 4q16 0 26.5 -11t10.5 -26q0 -9 -3 -15q-22 -44 -39 -88t-29.5 -90t-19 -97t-6.5 -107q0 -111 25 -202t68 -177
q4 -8 4 -16z" />
    <glyph glyph-name="parenright" unicode=")" horiz-adv-x="261" 
d="M218 243q0 -56 -8.5 -112t-25 -109.5t-40.5 -103.5t-54 -94q-6 -7 -13 -10.5t-15 -3.5q-17 0 -27.5 11.5t-10.5 26.5q0 8 4 16q43 86 68 177t25 202q0 56 -6.5 107t-19 97t-29.5 90t-39 88q-3 6 -3 15q0 13 9.5 25t26.5 12q9 0 16.5 -3.5t12.5 -10.5q31 -44 55 -94.5
t40.5 -104t25 -109.5t8.5 -112z" />
    <glyph glyph-name="asterisk" unicode="*" horiz-adv-x="343" 
d="M173 683q9 0 16.5 -7t6.5 -17l-5 -96l81 51q5 4 12 4q8 0 16 -6.5t8 -18.5q0 -14 -12 -20l-85 -43l84 -44q12 -5 12 -20q0 -10 -6.5 -17.5t-17.5 -7.5q-7 0 -12 4l-80 51l5 -95q1 -10 -6.5 -17t-18.5 -7t-17.5 7t-6.5 17l4 95l-81 -51q-5 -4 -11 -4q-9 0 -16.5 6.5
t-7.5 18.5q0 6 3 11.5t9 8.5l85 44l-85 43q-12 7 -12 21q0 11 7 17.5t17 6.5q6 0 11 -3l81 -52l-4 96q0 10 7 17t19 7z" />
    <glyph glyph-name="plus" unicode="+" horiz-adv-x="500" 
d="M477 338q0 -13 -8 -21.5t-20 -8.5h-166v-185q0 -13 -9.5 -22.5t-23.5 -9.5t-23 9.5t-9 22.5v185h-166q-13 0 -21 8.5t-8 21.5t8 21t21 8h166v179q0 12 9 21.5t25 9.5q12 0 21.5 -9.5t9.5 -21.5v-179h166q12 0 20 -8t8 -21z" />
    <glyph glyph-name="comma" unicode="," horiz-adv-x="237" 
d="M187 31q0 -42 -20.5 -82t-53.5 -68q-8 -7 -17 -7t-18.5 7t-9.5 19q0 11 8 20q19 16 32.5 37t16.5 41q-2 -1 -6.5 -1.5t-8.5 -0.5q-23 0 -38 15.5t-15 41.5q0 25 17 43t42 18q14 0 26.5 -5.5t22.5 -16.5t16 -26.5t6 -34.5z" />
    <glyph glyph-name="hyphen" unicode="-" horiz-adv-x="300" 
d="M276 243q0 -17 -11 -28.5t-27 -11.5h-176q-17 0 -27.5 11.5t-10.5 28.5q0 16 10.5 27t27.5 11h176q16 0 27 -11t11 -27z" />
    <glyph glyph-name="period" unicode="." horiz-adv-x="237" 
d="M180 52q0 -26 -18 -44t-44 -18q-25 0 -43 18t-18 44q0 25 18 43.5t43 18.5q26 0 44 -18.5t18 -43.5z" />
    <glyph glyph-name="slash" unicode="/" horiz-adv-x="305" 
d="M295 665q0 -6 -1 -10l-222 -663q-3 -10 -11.5 -16t-18.5 -6q-14 0 -23.5 9.5t-9.5 22.5q0 4 2 10l221 663q4 10 12 16t19 6q14 0 23 -10t9 -22z" />
    <glyph glyph-name="zero" unicode="0" horiz-adv-x="614" 
d="M568 333q0 -62 -15 -123.5t-46.5 -111t-81 -80t-118.5 -30.5q-70 0 -119 30.5t-80.5 80t-46.5 111t-15 123.5t15 123.5t46.5 110.5t80.5 79.5t119 30.5q69 0 118.5 -30.5t81 -79.5t46.5 -110.5t15 -123.5zM467 333q0 49 -8.5 95t-27 82t-49 57.5t-75.5 21.5t-75.5 -21.5
t-49.5 -57.5t-27 -82t-8 -95t8 -95t27 -82.5t49.5 -58t75.5 -21.5t75.5 21.5t49 58t27 82.5t8.5 95z" />
    <glyph glyph-name="one" unicode="1" horiz-adv-x="358" 
d="M284 43q0 -20 -14.5 -34.5t-35.5 -14.5t-35 14.5t-14 34.5v494l-85 -88q-11 -12 -28 -12q-16 0 -29 12t-13 30t12 30l145 147q15 16 40 16q23 0 40 -15.5t17 -39.5v-574v0z" />
    <glyph glyph-name="two" unicode="2" horiz-adv-x="591" 
d="M528 45q0 -20 -12.5 -32.5t-30.5 -12.5h-395q-18 0 -32 13.5t-14 34.5q0 11 4.5 21t14.5 18q89 68 155.5 122.5t111 101t66.5 87t22 78.5q0 30 -11.5 51t-29.5 35t-41.5 20.5t-48.5 6.5q-47 0 -86 -15t-69 -41q-12 -11 -28 -11q-17 0 -31 12.5t-14 31.5q0 16 10 27
q19 20 43 36t52.5 26.5t59.5 16t62 5.5q45 0 87 -12.5t74 -37.5t51.5 -63t19.5 -88q0 -48 -22.5 -95.5t-63 -94.5t-97.5 -96t-125 -102h275q18 0 30.5 -12.5t12.5 -30.5z" />
    <glyph glyph-name="three" unicode="3" horiz-adv-x="565" 
d="M514 181q0 -42 -17 -77.5t-48.5 -61t-76.5 -40t-101 -14.5q-36 0 -69.5 6.5t-63 18.5t-53 28t-39.5 35q-10 11 -10 25q0 17 13 31t31 14q14 0 27 -10q32 -29 73.5 -44.5t87.5 -15.5q70 0 109 31t39 83q0 28 -11 48.5t-31.5 33.5t-49.5 19t-66 6q-13 -1 -27 0t-25.5 5
t-18.5 13.5t-7 26.5q0 18 12.5 30.5t30.5 12.5q36 -1 69 3t58 14.5t40 30t15 51.5q0 26 -11.5 45.5t-30.5 32.5t-45.5 20t-55.5 7q-43 0 -79.5 -14t-69.5 -41q-10 -9 -25 -9q-16 0 -29.5 12t-13.5 30q0 19 13 30q40 37 92.5 58.5t120.5 21.5q51 0 93.5 -12t73.5 -35
t48.5 -56.5t17.5 -75.5q0 -35 -13.5 -61.5t-34 -45.5t-46.5 -31t-51 -16q24 -2 51 -13t50 -31t38.5 -50t15.5 -69z" />
    <glyph glyph-name="four" unicode="4" horiz-adv-x="568" 
d="M544 204q0 -18 -12.5 -30.5t-29.5 -12.5h-55v-118q0 -20 -14.5 -34.5t-36.5 -14.5q-20 0 -34 14.5t-14 34.5v118h-274q-20 0 -35 15t-15 39q0 17 10 32l255 387q12 18 31.5 28.5t41.5 10.5q16 1 31.5 -4t27 -15t19 -23.5t7.5 -30.5v-352h55q17 0 29.5 -13t12.5 -31z
M348 248v329l-220 -329h220z" />
    <glyph glyph-name="five" unicode="5" horiz-adv-x="595" 
d="M547 211q0 -52 -18 -93.5t-51 -70t-78 -44t-98 -15.5q-35 0 -67.5 5.5t-60.5 16t-51.5 26t-40.5 35.5q-9 11 -9 27q0 17 12.5 31.5t31.5 14.5q17 0 29 -11q32 -28 70 -42.5t86 -14.5q33 0 60 10t46 27.5t29.5 42t10.5 51.5q0 30 -10.5 54.5t-29.5 42t-45.5 26.5t-58.5 9
q-36 0 -69.5 -10.5t-61.5 -33.5q-19 -14 -40 -14t-36 14t-15 35v272q0 27 19.5 46t46.5 19h319q18 0 30.5 -12.5t12.5 -32.5q0 -18 -12.5 -30.5t-30.5 -12.5h-286v-213q24 24 64 41.5t90 17.5q42 0 80 -14.5t67.5 -41.5t47 -67t17.5 -91z" />
    <glyph glyph-name="six" unicode="6" horiz-adv-x="596" 
d="M551 209q0 -45 -16.5 -85.5t-47.5 -70.5t-75.5 -47.5t-99.5 -17.5q-72 0 -122.5 28t-82 75.5t-46.5 109.5t-15 131q0 70 17.5 132.5t52.5 110t88 75t124 27.5q26 0 51 -4t46.5 -12t40 -20t33.5 -28q9 -11 9 -25q0 -19 -13.5 -31.5t-30.5 -12.5q-15 0 -26 8
q-21 18 -47 27.5t-63 9.5q-45 0 -79 -20.5t-57 -54t-34.5 -77.5t-11.5 -90v-12t1 -11q11 17 29.5 34.5t42.5 32t52.5 23.5t59.5 9q45 0 85 -13.5t70.5 -40.5t47.5 -67t17 -93zM451 205q0 34 -11.5 59t-31.5 41.5t-46.5 24.5t-56.5 8q-46 0 -88 -24.5t-69 -65.5
q3 -30 13 -60.5t28.5 -55.5t47.5 -40.5t70 -15.5q37 0 63.5 12t44.5 30.5t27 41.5t9 45z" />
    <glyph glyph-name="seven" unicode="7" horiz-adv-x="523" 
d="M502 619q0 -10 -4 -18l-258 -578q-5 -13 -18 -21t-27 -8q-23 0 -37 15t-14 34q0 8 5 19l233 517h-316q-18 0 -30.5 13t-12.5 32q0 18 12.5 30.5t30.5 12.5h389q16 0 31.5 -13t15.5 -35z" />
    <glyph glyph-name="eight" unicode="8" horiz-adv-x="588" 
d="M541 170q0 -43 -20 -77.5t-53.5 -57.5t-78.5 -35t-95 -12q-51 0 -95.5 12t-78 35t-53.5 57t-20 78q0 32 12.5 60t34 50t49.5 38t59 26q-29 9 -54.5 23t-45.5 33t-32 45t-12 58q0 46 21 78.5t54.5 54t75.5 31.5t85 10t85 -10t75.5 -31.5t55 -54t21.5 -78.5q0 -32 -12 -58
t-32 -45t-46 -33t-55 -23q31 -10 59 -26t49.5 -38t34 -50t12.5 -60zM430 489q0 24 -10.5 43t-29 31.5t-43 19.5t-53.5 7q-28 0 -53 -7t-43.5 -19.5t-29 -31.5t-10.5 -43q0 -27 15.5 -46t37.5 -31.5t45 -18.5t38 -9q15 3 38.5 9t45 18.5t37 31.5t15.5 46zM441 181
q0 30 -17 51.5t-40.5 36t-49 22t-40.5 9.5q-15 -2 -40 -9.5t-49 -22t-41 -36t-17 -51.5q0 -24 11.5 -44t32 -33.5t47.5 -21t56 -7.5q30 0 56.5 7.5t46.5 21t32 33.5t12 44z" />
    <glyph glyph-name="nine" unicode="9" horiz-adv-x="596" 
d="M549 334q0 -70 -17.5 -133t-52.5 -110t-88 -74.5t-124 -27.5q-26 0 -51 4t-46.5 11.5t-40 19.5t-33.5 28q-10 11 -10 26q0 9 3.5 17.5t10.5 14t14.5 9t16.5 3.5q15 0 26 -8q22 -18 47.5 -27.5t62.5 -9.5q45 0 79 20.5t57.5 54t34.5 77.5t11 90v12t-1 11
q-11 -17 -29 -34.5t-42.5 -32t-53 -23.5t-59.5 -9q-45 0 -85 13.5t-70 40.5t-47.5 67t-17.5 93q0 45 16.5 85t47.5 70t75.5 48t100.5 18q71 0 121 -28t82.5 -75.5t47 -109.5t14.5 -131zM447 418q-3 30 -13 60.5t-28.5 55.5t-47.5 40.5t-70 15.5q-36 0 -63 -12t-45 -30.5
t-27 -41.5t-9 -45q0 -34 11.5 -59t31.5 -41.5t46.5 -24.5t56.5 -8q47 0 88.5 24.5t68.5 65.5z" />
    <glyph glyph-name="colon" unicode=":" horiz-adv-x="236" 
d="M180 428q0 -26 -18 -44t-44 -18q-25 0 -43 18t-18 44t18 44t43 18q26 0 44 -18t18 -44zM180 52q0 -26 -18 -44t-44 -18q-25 0 -43 18t-18 44q0 25 18 43.5t43 18.5q26 0 44 -18.5t18 -43.5z" />
    <glyph glyph-name="semicolon" unicode=";" horiz-adv-x="237" 
d="M180 428q0 -12 -5 -23.5t-13 -20t-19.5 -13.5t-24.5 -5q-12 0 -23.5 5t-19.5 13.5t-13 20t-5 23.5q0 26 18 44t43 18q26 0 44 -18t18 -44zM187 32q0 -42 -20.5 -82t-53.5 -68q-8 -6 -17 -6t-18.5 6.5t-9.5 18.5t8 20q19 17 32.5 38t16.5 41q-2 -1 -6.5 -1.5t-8.5 -0.5
q-23 0 -38 15.5t-15 40.5t17 43t42 18q14 0 26.5 -5.5t22.5 -16.5t16 -26t6 -35z" />
    <glyph glyph-name="less" unicode="&#x3c;" horiz-adv-x="500" 
d="M477 138q0 -15 -11 -23.5t-21 -8.5q-6 0 -13 3l-384 185q-11 6 -18 17t-7 25q0 12 7 22.5t18 16.5l383 186q5 2 14 2q11 0 21.5 -8.5t10.5 -23.5q0 -9 -4.5 -16.5t-13.5 -11.5l-359 -169l359 -168q9 -3 13.5 -11t4.5 -17z" />
    <glyph glyph-name="equal" unicode="=" horiz-adv-x="500" 
d="M477 431q0 -13 -8.5 -22t-19.5 -9h-397q-12 0 -20.5 9t-8.5 22q0 12 8.5 20.5t20.5 8.5h397q11 0 19.5 -8.5t8.5 -20.5zM477 239q0 -14 -8 -22.5t-20 -8.5h-398q-12 0 -20 8.5t-8 22.5q0 12 8 20t20 8h398q12 0 20 -8t8 -20z" />
    <glyph glyph-name="greater" unicode="&#x3e;" horiz-adv-x="500" 
d="M477 336q0 -14 -7 -25t-18 -17l-385 -185q-6 -3 -13 -3q-11 0 -21 9t-10 23q0 9 4.5 17t12.5 11l359 168l-358 169q-9 4 -14 11.5t-5 16.5q0 15 10 23.5t23 8.5q8 0 13 -2l384 -186q11 -6 18 -16.5t7 -22.5z" />
    <glyph glyph-name="question" unicode="?" horiz-adv-x="460" 
d="M432 521q0 -38 -14 -64.5t-34.5 -47t-44.5 -37t-44.5 -32.5t-34.5 -34t-14 -41q0 -11 5 -20.5t5 -19.5q0 -15 -10.5 -26.5t-28.5 -11.5q-14 0 -25.5 9t-18.5 22.5t-10.5 28.5t-3.5 26q0 31 13 54t31.5 40.5t41 32.5t41.5 30.5t31.5 33t12.5 42.5q0 34 -26 58.5t-81 24.5
q-40 0 -70 -13.5t-54 -36.5q-12 -11 -29 -11t-29.5 12.5t-12.5 30.5q0 16 9 26q16 20 38.5 35t47.5 24.5t53.5 15t56.5 5.5q47 0 83.5 -12t62.5 -33t39.5 -49.5t13.5 -61.5zM287 52q0 -26 -18.5 -44t-43.5 -18q-26 0 -44 18t-18 44q0 25 18 43.5t44 18.5q25 0 43.5 -18.5
t18.5 -43.5z" />
    <glyph glyph-name="at" unicode="@" horiz-adv-x="783" 
d="M747 324q0 -60 -16 -104.5t-42 -74.5t-58 -45t-64 -15q-43 0 -66.5 24.5t-25.5 57.5q-27 -35 -68 -58.5t-88 -23.5q-35 0 -63 12t-48 34t-31 52t-11 66q0 52 19.5 97.5t52.5 79.5t74.5 53.5t85.5 19.5q48 0 80.5 -22t47.5 -53l7 36q3 13 14 21.5t24 8.5q18 0 29 -11
t11 -26q0 -2 -0.5 -4t-0.5 -4l-47 -225q-1 -5 -1.5 -11t-0.5 -11q0 -25 12.5 -37.5t31.5 -12.5q15 0 33 9t33.5 29.5t26.5 54t11 83.5q0 60 -20 111.5t-57 88.5t-88.5 58t-115.5 21q-72 0 -137 -29.5t-114 -79t-78 -114t-29 -134.5q0 -60 21.5 -111.5t59.5 -89.5t90.5 -59.5
t114.5 -21.5q49 0 93 13.5t83 37.5q4 2 8 2q5 0 11 -4.5t6 -12.5q0 -9 -6 -12q-45 -28 -96 -43t-103 -15q-68 0 -126 24t-100.5 66.5t-66.5 100t-24 123.5q0 81 33 152.5t87.5 125.5t126.5 85t150 31q71 0 129 -25t99.5 -67.5t64 -99.5t22.5 -122zM513 366q-4 11 -12.5 23
t-20 22t-28 16.5t-36.5 6.5q-36 0 -66.5 -15.5t-53 -40.5t-35 -57t-12.5 -66q0 -46 26 -75.5t71 -29.5q24 0 45 7.5t38.5 19.5t31 27t24.5 29z" />
    <glyph glyph-name="A" unicode="A" horiz-adv-x="665" 
d="M637 47q0 -19 -14.5 -36t-38.5 -17q-16 0 -29 8.5t-19 23.5l-44 113h-319l-44 -113q-6 -15 -19.5 -23.5t-28.5 -8.5q-24 0 -38.5 16t-14.5 37q0 10 3 19l221 554q9 24 31 38.5t48 14.5q26 1 48.5 -13.5t32.5 -39.5l221 -554q4 -10 4 -19zM464 226l-132 340l-131 -340h263
z" />
    <glyph glyph-name="B" unicode="B" horiz-adv-x="638" 
d="M588 180q0 -39 -13 -72t-38 -57t-60.5 -37.5t-82.5 -13.5h-254q-27 0 -46 19t-19 46v537q0 27 19 46t46 19h246q45 0 80 -13t59 -35.5t37 -54t13 -67.5q0 -32 -9.5 -58t-26 -45.5t-37.5 -32t-44 -17.5q27 -4 50.5 -19t41 -36.5t28 -50t10.5 -58.5zM473 482q0 41 -27 69.5
t-78 28.5h-194v-196h194q51 0 78 27.5t27 70.5zM486 192q0 21 -7.5 40t-21.5 33.5t-35.5 23t-49.5 8.5h-198v-210h198q54 0 84 28t30 77z" />
    <glyph glyph-name="C" unicode="C" horiz-adv-x="679" 
d="M393 678q78 0 134 -28.5t94 -70.5q12 -14 12 -32q0 -19 -13.5 -32.5t-33.5 -13.5q-10 0 -19 3.5t-15 12.5q-29 33 -72 53t-87 20q-53 0 -97.5 -19t-77.5 -53.5t-51 -81t-18 -103.5q0 -56 18 -103.5t51 -81.5t77.5 -53t97.5 -19q45 0 86.5 18.5t72.5 53.5q6 8 15.5 12
t19.5 4q19 0 32.5 -14t13.5 -32q0 -9 -3 -17t-9 -14q-39 -43 -94.5 -71t-133.5 -28q-73 0 -136.5 25t-110 70.5t-73.5 109t-27 140.5t27 140.5t73.5 109t110 70.5t136.5 25z" />
    <glyph glyph-name="D" unicode="D" horiz-adv-x="705" 
d="M657 333q0 -72 -24.5 -133t-69.5 -105.5t-109 -69.5t-142 -25h-172q-27 0 -46 19t-19 46v537q0 27 19 46t46 19h172q78 0 142 -25t109 -69.5t69.5 -106t24.5 -133.5zM556 333q0 51 -16.5 96t-47 78.5t-76 52.5t-104.5 19h-138v-491h138q58 0 103 19.5t76.5 52.5t48 77.5
t16.5 95.5z" />
    <glyph glyph-name="E" unicode="E" 
d="M527 45q0 -20 -12.5 -32.5t-30.5 -12.5h-344q-27 0 -46 19t-19 46v537q0 27 19 46t46 19h344q18 0 30.5 -12.5t12.5 -32.5q0 -18 -12.5 -30.5t-30.5 -12.5h-310v-195h303q18 0 30.5 -12.5t12.5 -32.5q0 -17 -12.5 -30t-30.5 -13h-303v-208h310q18 0 30.5 -12.5
t12.5 -30.5z" />
    <glyph glyph-name="F" unicode="F" horiz-adv-x="556" 
d="M527 622q0 -18 -12.5 -30.5t-30.5 -12.5h-310v-195h303q18 0 30.5 -12.5t12.5 -32.5q0 -17 -12.5 -30t-30.5 -13h-303v-253q0 -20 -14.5 -34.5t-35.5 -14.5t-35 14.5t-14 34.5v559q0 27 19 46t46 19h344q18 0 30.5 -12.5t12.5 -32.5z" />
    <glyph glyph-name="G" unicode="G" horiz-adv-x="715" 
d="M661 158q0 -41 -25 -73t-63.5 -53.5t-86 -33t-93.5 -11.5q-72 0 -135 25t-110 70t-74.5 109t-27.5 142t27.5 142t74.5 109t110 69.5t135 24.5q76 0 133.5 -26t97.5 -67q6 -6 9 -14.5t3 -17.5q0 -19 -13 -32.5t-32 -13.5t-33 15q-31 32 -75 50t-90 18q-53 0 -97.5 -19
t-77.5 -53.5t-51 -81t-18 -103.5q0 -56 18 -103.5t51 -81.5t77.5 -53.5t97.5 -19.5q27 0 52.5 6t47.5 15.5t39.5 21.5t29.5 24v121h-178q-18 0 -30.5 12.5t-12.5 31.5q0 18 12.5 30.5t30.5 12.5h211q27 0 46.5 -19t19.5 -46v-127v0z" />
    <glyph glyph-name="H" unicode="H" horiz-adv-x="717" 
d="M643 43q0 -20 -14.5 -34.5t-35.5 -14.5t-35.5 14.5t-14.5 34.5v256h-369v-256q0 -20 -14.5 -34.5t-35.5 -14.5t-35 14.5t-14 34.5v582q0 20 14.5 34t36.5 14q20 0 34 -14t14 -34v-238h369v238q0 20 14.5 34t37.5 14q20 0 34 -14t14 -34v-582v0z" />
    <glyph glyph-name="I" unicode="I" horiz-adv-x="248" 
d="M174 43q0 -20 -14.5 -34.5t-35.5 -14.5t-35 14.5t-14 34.5v582q0 20 14.5 34t36.5 14q20 0 34 -14t14 -34v-582v0z" />
    <glyph glyph-name="J" unicode="J" horiz-adv-x="478" 
d="M403 206q0 -56 -16.5 -97t-46 -67.5t-69 -40t-86.5 -13.5q-21 0 -42.5 3t-41.5 10t-38.5 17.5t-32.5 26.5q-11 11 -11 27q0 18 13 31.5t31 13.5q12 0 21 -6q20 -14 42.5 -24.5t51.5 -10.5q59 0 92.5 36t33.5 95v418q0 20 14.5 34t36.5 14q20 0 34 -14t14 -34v-419v0z" />
    <glyph glyph-name="K" unicode="K" horiz-adv-x="610" 
d="M551 41q0 -17 -13.5 -32.5t-34.5 -15.5q-10 0 -19.5 4.5t-17.5 13.5l-229 280l-63 -72v-176q0 -20 -14.5 -34.5t-35.5 -14.5t-35 14.5t-14 34.5v582q0 20 14.5 34t36.5 14q20 0 34 -14t14 -34v-290l269 321q7 8 16.5 12t18.5 4q20 0 34.5 -13.5t14.5 -32.5q0 -17 -11 -28
l-215 -247l239 -282q11 -13 11 -28z" />
    <glyph glyph-name="L" unicode="L" horiz-adv-x="513" 
d="M482 45q0 -20 -12.5 -32.5t-30.5 -12.5h-299q-27 0 -46 19t-19 46v560q0 20 14.5 34t36.5 14q20 0 34 -14t14 -34v-537h265q18 0 30.5 -12.5t12.5 -30.5z" />
    <glyph glyph-name="M" unicode="M" horiz-adv-x="821" 
d="M747 43q0 -20 -14.5 -34.5t-35.5 -14.5t-35.5 14.5t-14.5 34.5v484l-212 -517q-3 -7 -9.5 -11.5t-16.5 -4.5q-8 0 -14.5 4.5t-9.5 11.5l-211 517v-484q0 -20 -14.5 -34.5t-35.5 -14.5t-35 14.5t-14 34.5v557q0 29 21 50t51 21q28 1 52 -10.5t35 -38.5l176 -430l177 430
q9 23 29.5 36t44.5 13q17 1 32.5 -4t27.5 -14t19 -23t7 -30v-557v0z" />
    <glyph glyph-name="N" unicode="N" horiz-adv-x="714" 
d="M639 51q0 -11 -4.5 -21t-12.5 -18t-19 -13t-24 -5q-15 0 -28 6.5t-21 18.5l-356 487v-463q0 -20 -14.5 -34.5t-35.5 -14.5t-35 14.5t-14 34.5v569q0 12 4.5 23t13 19.5t20 13.5t26.5 5t29 -6.5t24 -20.5l348 -473v452q0 20 14.5 34t36.5 14q20 0 34 -14t14 -34v-574v0z
" />
    <glyph glyph-name="O" unicode="O" horiz-adv-x="765" 
d="M718 333q0 -74 -24.5 -137.5t-69 -109.5t-106 -72t-136.5 -26q-74 0 -136 26t-106.5 72t-69 109.5t-24.5 137.5t24.5 137.5t69 109.5t106.5 72t136 26q75 0 136.5 -26t106 -72t69 -109.5t24.5 -137.5zM616 333q0 55 -17 102.5t-47.5 81.5t-73.5 53.5t-96 19.5
t-96.5 -19.5t-74 -53.5t-46.5 -81.5t-16 -102.5t16 -102t46.5 -81.5t74 -54t96.5 -19.5t96 19.5t73.5 54t47.5 81.5t17 102z" />
    <glyph glyph-name="P" unicode="P" horiz-adv-x="597" 
d="M568 462q0 -42 -14.5 -79t-42 -65t-67 -44.5t-89.5 -16.5h-181v-214q0 -20 -14.5 -34.5t-35.5 -14.5t-35 14.5t-14 34.5v559q0 27 19 46t46 19h215q51 0 90.5 -16.5t66.5 -44.5t41.5 -65t14.5 -79zM466 462q0 53 -34.5 85t-89.5 32h-168v-234h168q55 0 89.5 32t34.5 85z
" />
    <glyph glyph-name="Q" unicode="Q" horiz-adv-x="765" 
d="M718 333q0 -74 -23.5 -136t-67.5 -107l34 -37q10 -13 10 -28q0 -18 -12.5 -32t-32.5 -14q-21 0 -33 15l-37 39q-37 -21 -80.5 -33t-93.5 -12q-74 0 -136 26t-106.5 72t-69 109.5t-24.5 137.5t24.5 137.5t69 109.5t106.5 72t136 26q75 0 136.5 -26t106 -72t69 -109.5
t24.5 -137.5zM616 333q0 55 -17 102.5t-47.5 81.5t-73.5 53.5t-96 19.5t-96.5 -19.5t-74 -53.5t-46.5 -81.5t-16 -102.5t16 -102t46.5 -81.5t74 -54t96.5 -19.5q61 0 112 28l-64 70q-6 6 -8.5 13t-2.5 15q0 17 12.5 31.5t32.5 14.5t33 -15l65 -71q26 33 40 76.5t14 94.5z
" />
    <glyph glyph-name="R" unicode="R" horiz-adv-x="617" 
d="M568 462q0 -44 -14 -79t-37 -59t-53 -38.5t-62 -18.5l129 -200q7 -13 7 -25q0 -18 -13.5 -33t-35.5 -15q-12 0 -22.5 6t-17.5 17l-150 240h-125v-214q0 -20 -14.5 -34.5t-35.5 -14.5t-35 14.5t-14 34.5v559q0 27 19 46t46 19h215q47 0 86 -14.5t67.5 -41.5t44 -65
t15.5 -84zM342 579h-168v-235h168q55 0 89.5 32.5t34.5 85.5t-34.5 85t-89.5 32z" />
    <glyph glyph-name="S" unicode="S" horiz-adv-x="590" 
d="M548 189q0 -39 -14 -75.5t-44.5 -64t-78.5 -44.5t-115 -17q-36 0 -71 6t-66 17t-57 26.5t-45 34.5q-12 13 -12 31q0 19 13 34t33 15q7 0 14.5 -2t13.5 -7q35 -29 80.5 -48.5t100.5 -19.5q41 0 69 10t45 25t24.5 33.5t7.5 35.5q0 30 -16.5 49t-44 32t-62.5 22t-72.5 19.5
t-72.5 23.5t-62.5 34t-44.5 52t-17 76q0 41 17.5 76t48.5 60.5t74.5 39.5t95.5 14q31 0 62 -5t59.5 -14t53.5 -22.5t43 -30.5q13 -13 13 -31q0 -19 -14 -32.5t-33 -13.5q-16 0 -27 9q-37 27 -79 40t-86 13q-56 0 -91 -26.5t-35 -69.5q0 -26 17 -42.5t44.5 -28.5t62.5 -21
t72 -19t72.5 -24.5t62.5 -36.5t44 -54t17 -79z" />
    <glyph glyph-name="T" unicode="T" 
d="M549 622q0 -18 -12.5 -30.5t-30.5 -12.5h-170v-536q0 -20 -14.5 -34.5t-35.5 -14.5q-20 0 -34.5 14.5t-14.5 34.5v536h-170q-18 0 -30.5 13t-12.5 32q0 18 12.5 30.5t30.5 12.5h439q18 0 30.5 -12.5t12.5 -32.5z" />
    <glyph glyph-name="U" unicode="U" horiz-adv-x="709" 
d="M634 262q0 -62 -17 -113t-52 -86.5t-87.5 -55t-122.5 -19.5q-71 0 -123.5 20t-87 55t-52 85.5t-17.5 112.5v364q0 20 14.5 34t36.5 14q20 0 34 -14t14 -34v-361q0 -86 46 -137t135 -51t134.5 51t45.5 137v361q0 20 14.5 34t36.5 14q20 0 34 -14t14 -34v-363v0z" />
    <glyph glyph-name="V" unicode="V" horiz-adv-x="665" 
d="M637 621q0 -10 -3 -19l-221 -555q-10 -24 -31.5 -38.5t-46.5 -14.5h-5q-26 0 -47.5 14.5t-30.5 38.5l-221 555q-4 8 -4 19q0 18 15 35t39 17q15 0 28.5 -8.5t19.5 -24.5l203 -532l204 532q6 15 18.5 24t29.5 9q24 0 38.5 -16t14.5 -36z" />
    <glyph glyph-name="W" unicode="W" horiz-adv-x="892" 
d="M867 624q0 -6 -2 -14l-162 -567q-6 -22 -24 -35.5t-41 -13.5h-2q-23 0 -40 14t-23 35l-127 473l-128 -473q-6 -22 -23.5 -35.5t-40.5 -13.5h-2q-23 0 -40 13.5t-23 34.5l-162 568q-2 8 -2 14q0 20 14 35.5t38 15.5q17 0 32 -11t20 -29l131 -504l138 505q4 17 17 27t32 10
q17 0 30 -10t18 -27l137 -505l131 504q4 17 18.5 28t32.5 11q23 0 38 -15t15 -35z" />
    <glyph glyph-name="X" unicode="X" horiz-adv-x="656" 
d="M605 42q0 -9 -3.5 -18t-10 -15.5t-15.5 -11t-19 -4.5q-11 0 -21 5t-16 14l-192 261l-193 -261q-6 -10 -16 -14.5t-21 -4.5q-19 0 -33.5 13.5t-14.5 34.5q0 7 2 14.5t7 13.5l204 273l-189 257q-9 12 -9 26q0 17 13 32.5t35 15.5q24 0 39 -20l176 -243l176 243q13 20 38 20
q19 0 34 -14t15 -34q0 -15 -9 -27l-189 -255l204 -274q8 -12 8 -27z" />
    <glyph glyph-name="Y" unicode="Y" horiz-adv-x="631" 
d="M588 626q0 -14 -7 -25l-216 -321v-237q0 -20 -14 -34.5t-36 -14.5q-20 0 -34 14.5t-14 34.5v237l-217 322q-8 11 -8 24q0 17 12.5 32t34.5 15q12 0 23 -5.5t18 -15.5l186 -284l185 283q6 11 17 16t22 5q21 0 34.5 -14t13.5 -32z" />
    <glyph glyph-name="Z" unicode="Z" horiz-adv-x="587" 
d="M546 45q0 -20 -12.5 -32.5t-30.5 -12.5h-410q-20 0 -36 15.5t-16 39.5q0 19 11 33l353 491h-322q-18 0 -30.5 13t-12.5 32q0 18 12.5 30.5t30.5 12.5h404q20 0 35.5 -15.5t15.5 -39.5q0 -19 -11 -34l-353 -490h329q18 0 30.5 -12.5t12.5 -30.5z" />
    <glyph glyph-name="bracketleft" unicode="[" horiz-adv-x="253" 
d="M242 -158q0 -14 -8.5 -23t-21.5 -9h-105q-27 0 -46 19t-19 46v738q0 27 19 46t46 19h105q13 0 21.5 -9t8.5 -23q0 -13 -8.5 -22t-21.5 -9h-103v-742h103q13 0 21.5 -9t8.5 -22z" />
    <glyph glyph-name="backslash" unicode="\" horiz-adv-x="305" 
d="M295 2q0 -12 -8.5 -22t-23.5 -10q-10 0 -18.5 6t-12.5 16l-221 663q-1 2 -1.5 4.5t-0.5 4.5q0 13 9 23t24 10q10 0 18.5 -6t11.5 -16l222 -663q1 -2 1 -4.5v-5.5z" />
    <glyph glyph-name="bracketright" unicode="]" horiz-adv-x="253" 
d="M211 -125q0 -27 -19 -46t-46 -19h-104q-13 0 -22 9t-9 23q0 13 9 22t22 9h102v742h-102q-13 0 -22 9t-9 24q0 13 9 21.5t22 8.5h104q27 0 46 -19t19 -46v-738v0z" />
    <glyph glyph-name="asciicircum" unicode="^" horiz-adv-x="434" 
d="M400 358q0 -11 -9 -21.5t-24 -10.5q-8 0 -15.5 4.5t-11.5 12.5l-123 260l-122 -260q-4 -8 -11.5 -12.5t-15.5 -4.5q-14 0 -23.5 10t-9.5 22q0 7 3 14l137 274q5 13 17 20t27 7q13 0 24.5 -7.5t17.5 -19.5l136 -274q3 -7 3 -14z" />
    <glyph glyph-name="underscore" unicode="_" horiz-adv-x="564" 
d="M573 -71q0 -14 -8.5 -23t-21.5 -9h-521q-13 0 -22 9t-9 23q0 13 9 22t22 9h521q13 0 21.5 -9t8.5 -22z" />
    <glyph glyph-name="grave" unicode="`" horiz-adv-x="233" 
d="M206 574q0 -9 -6.5 -16.5t-17.5 -7.5q-7 0 -15 6l-117 101q-9 7 -9 20q0 11 8.5 19.5t21.5 8.5q12 0 20 -8l109 -107q6 -8 6 -16z" />
    <glyph glyph-name="a" unicode="a" horiz-adv-x="531" 
d="M460 38q0 -18 -13 -31t-32 -13q-13 0 -21.5 5.5t-13.5 14.5t-7 19.5t-2 20.5q-60 -66 -159 -66q-30 0 -60 10t-54 30t-39 50t-15 70q0 41 15 71t39 49.5t54 28.5t60 9q51 0 91 -15.5t68 -48.5v81q0 46 -33.5 71.5t-84.5 25.5q-67 0 -121 -42q-11 -8 -22 -8q-13 0 -25 9.5
t-12 25.5q0 12 9 23q35 35 85 51t99 16q39 0 74 -9t61.5 -29t42.5 -52t16 -78v-289zM371 106v82q-21 28 -54.5 42t-70.5 14q-49 0 -80.5 -26.5t-31.5 -71.5q0 -42 31.5 -68.5t80.5 -26.5q37 0 70.5 13.5t54.5 41.5z" />
    <glyph glyph-name="b" unicode="b" horiz-adv-x="578" 
d="M535 241q0 -59 -16.5 -106.5t-45 -79.5t-67.5 -49.5t-86 -17.5q-49 0 -90.5 22.5t-68.5 58.5v-31q0 -18 -13 -31t-32 -13q-18 0 -31 13t-13 31v592q0 17 13 30t33 13q17 0 30 -13t13 -30v-217q29 39 70 60.5t89 21.5q47 0 86.5 -18t68 -51t44.5 -80t16 -105zM442 241
q0 38 -10 70t-29 55.5t-46 36.5t-62 13q-41 0 -78 -21.5t-56 -50.5v-207q19 -29 56 -49.5t78 -20.5q35 0 62 13t46 36.5t29 55t10 69.5z" />
    <glyph glyph-name="c" unicode="c" horiz-adv-x="496" 
d="M457 73q0 -6 -2.5 -13t-9.5 -13q-27 -27 -65 -43t-92 -16q-55 0 -100 19t-77 53t-50 80.5t-18 101.5q0 54 18 100.5t50 80.5t77 53t100 19q27 0 51 -4.5t44 -13t36.5 -20.5t29.5 -26q7 -10 7 -21q0 -17 -12.5 -28.5t-28.5 -11.5t-28 11q-20 18 -43.5 26.5t-50.5 8.5
q-37 0 -65.5 -13t-49.5 -36.5t-32 -55t-11 -69.5t11 -70t32 -55.5t49.5 -36.5t65.5 -13q55 0 94 36q12 9 28 9t29 -11t13 -28z" />
    <glyph glyph-name="d" unicode="d" horiz-adv-x="578" 
d="M506 38q0 -18 -13 -31t-32 -13q-18 0 -31 13t-13 31v31q-28 -36 -69 -58.5t-90 -22.5q-47 0 -86.5 17.5t-68 49.5t-44.5 79.5t-16 106.5q0 58 15.5 105t44 80t68 51t87.5 18q47 0 88.5 -21.5t70.5 -60.5v217q0 17 13 30t33 13q17 0 30 -13t13 -30v-592zM417 138v206
q-19 30 -56.5 51t-79.5 21q-33 0 -60.5 -13t-46.5 -36.5t-29 -55.5t-10 -70t10 -69.5t29 -55t46.5 -36.5t60.5 -13q42 0 79.5 20.5t56.5 50.5z" />
    <glyph glyph-name="e" unicode="e" horiz-adv-x="560" 
d="M518 258q0 -18 -13.5 -31.5t-32.5 -13.5h-336q3 -31 15 -59t33.5 -48.5t50.5 -33t66 -12.5q31 0 62 10t58 30q9 5 20 5q12 0 24 -10t12 -26q0 -19 -14 -28q-36 -27 -79 -40t-92 -13q-54 0 -99.5 18.5t-79 51.5t-52 80t-18.5 104q0 52 18 98.5t50 80.5t76 54t97 20
q44 0 80.5 -13t65.5 -37t49 -57t30 -74q3 -12 6 -26.5t3 -29.5zM432 276q-1 24 -9.5 50t-26.5 47.5t-46 35.5t-67 14q-36 0 -63 -14t-45 -35t-28 -47t-11 -51h296z" />
    <glyph glyph-name="f" unicode="f" horiz-adv-x="295" 
d="M342 628q0 -16 -11 -25.5t-23 -9.5t-24 6t-28 6q-34 0 -53 -22.5t-19 -65.5v-34h66q16 0 27 -11.5t11 -28.5q0 -16 -11 -27t-27 -11h-66v-367q0 -18 -13 -31t-32 -13q-18 0 -31 13t-13 31v367h-48q-17 0 -27.5 11.5t-10.5 28.5q0 16 10.5 27t27.5 11h48v34q0 76 39.5 118
t106.5 42q16 0 33.5 -3t32.5 -9t25 -15t10 -22z" />
    <glyph glyph-name="g" unicode="g" horiz-adv-x="577" 
d="M505 19q0 -62 -20.5 -103.5t-54 -66t-76.5 -35t-87 -10.5q-26 0 -51 2.5t-48.5 9.5t-44.5 18.5t-39 28.5q-10 10 -10 25q0 16 11.5 27t26.5 11q14 0 23 -7q28 -23 60 -32.5t72 -9.5q28 0 55 7t47.5 23.5t33.5 43t13 65.5v64q-27 -37 -68 -60.5t-91 -23.5q-46 0 -85.5 17
t-68 49t-44.5 78t-16 105t15.5 105t44 78.5t68 49.5t86.5 17q48 0 89 -21.5t70 -60.5v33q0 17 13 30t33 13q17 0 30 -13t13 -30v-427zM416 148v196q-10 15 -24 28t-32 22.5t-38 15.5t-41 6q-33 0 -60.5 -12.5t-46.5 -35t-29 -54t-10 -69.5q0 -37 10 -68t29 -54t46.5 -35.5
t60.5 -12.5q21 0 41 6t38 16t32 23t24 28z" />
    <glyph glyph-name="h" unicode="h" horiz-adv-x="560" 
d="M488 38q0 -18 -13 -31t-32 -13q-18 0 -31 13t-13 31v274q0 30 -7.5 50t-21 32t-33 17t-42.5 5q-21 0 -41 -6t-37 -15.5t-31.5 -22.5t-24.5 -27v-307q0 -18 -13 -31t-32 -13q-18 0 -31 13t-13 31v592q0 17 13 30t33 13q17 0 30 -13t13 -30v-215q12 15 30 29t40 25.5
t48 18.5t54 7q77 0 116 -38.5t39 -114.5v-304v0z" />
    <glyph glyph-name="i" unicode="i" horiz-adv-x="233" 
d="M116 662q24 0 40.5 -17t16.5 -41t-16.5 -40.5t-40.5 -16.5q-23 0 -40 16.5t-17 40.5t17 41t40 17zM161 38q0 -18 -13 -31t-32 -13q-18 0 -31 13t-13 31v408q0 17 13 30t33 13q17 0 30 -13t13 -30v-408z" />
    <glyph glyph-name="j" unicode="j" horiz-adv-x="233" 
d="M116 662q24 0 40.5 -17t16.5 -41t-17 -40.5t-40 -16.5t-40 16.5t-17 40.5t17 41t40 17zM161 -38q0 -74 -38.5 -116t-112.5 -42q-20 0 -39 3t-33.5 9.5t-24 16t-9.5 22.5q0 15 11.5 25.5t25.5 10.5q12 0 24.5 -7t31.5 -7q33 0 54 20t21 65v484q0 17 13 30t33 13
q17 0 30 -13t13 -30v-484z" />
    <glyph glyph-name="k" unicode="k" horiz-adv-x="520" 
d="M467 38q0 -15 -12 -30t-32 -15q-9 0 -19 4.5t-16 13.5l-153 198l-74 -75v-96q0 -18 -13 -31t-32 -13q-18 0 -31 13t-13 31v592q0 17 13 30t33 13q17 0 30 -13t13 -30v-393l228 240q12 13 29 13t29.5 -13t12.5 -29t-11 -27l-150 -157l159 -200q9 -12 9 -26z" />
    <glyph glyph-name="l" unicode="l" horiz-adv-x="233" 
d="M161 38q0 -18 -13 -31t-32 -13q-18 0 -31 13t-13 31v592q0 17 13 30t33 13q17 0 30 -13t13 -30v-592v0z" />
    <glyph glyph-name="m" unicode="m" horiz-adv-x="820" 
d="M748 38q0 -18 -13 -31t-32 -13q-18 0 -31 13t-13 31v284q0 43 -20 68.5t-64 25.5q-37 0 -70 -21.5t-51 -48.5v-308q0 -18 -13 -31t-32 -13q-18 0 -31 13t-13 31v284q0 43 -19.5 68.5t-65.5 25.5q-35 0 -68 -22t-51 -49v-307q0 -18 -13 -31t-32 -13q-18 0 -31 13t-13 31
v408q0 17 13 30t33 13q17 0 30 -13t13 -30v-31q7 12 22.5 25.5t36.5 26t45.5 20.5t51.5 8q56 0 88 -25t43 -64q10 16 27 32t38.5 28.5t46.5 20.5t51 8q67 0 102 -36t35 -110v-311v0z" />
    <glyph glyph-name="n" unicode="n" horiz-adv-x="559" 
d="M487 38q0 -18 -13 -31t-32 -13q-18 0 -31 13t-13 31v272q0 60 -28 83t-75 23q-21 0 -41 -6t-37.5 -15.5t-32 -22.5t-23.5 -27v-307q0 -18 -13 -31t-32 -13q-18 0 -31 13t-13 31v408q0 17 13 30t33 13q17 0 30 -13t13 -30v-31q12 15 30 29t40 25.5t47.5 18.5t53.5 7
q77 0 116 -39.5t39 -115.5v-302v0z" />
    <glyph glyph-name="o" unicode="o" 
d="M530 242q0 -53 -17 -99t-48.5 -80.5t-76.5 -54.5t-102 -20q-56 0 -101 20t-77 54.5t-48.5 80.5t-16.5 99q0 52 16.5 98t48.5 80.5t77 54.5t101 20q57 0 102 -20t76.5 -54.5t48.5 -80.5t17 -98zM437 242q0 35 -10 66t-29.5 55t-47 38.5t-64.5 14.5q-36 0 -64 -14.5
t-47.5 -38.5t-29.5 -55t-10 -66t10 -66.5t29.5 -55.5t47.5 -38.5t64 -14.5q37 0 64.5 14.5t47 38.5t29.5 55.5t10 66.5z" />
    <glyph glyph-name="p" unicode="p" horiz-adv-x="575" 
d="M535 242q0 -59 -16 -106.5t-44.5 -80t-68 -50t-86.5 -17.5q-48 0 -89 21t-70 61v-217q0 -17 -13 -30t-32 -13q-18 0 -31 13t-13 30v593q0 17 13 30t33 13q17 0 30 -13t13 -30v-32q26 36 68 58.5t91 22.5q47 0 86.5 -17.5t68 -49.5t44.5 -79.5t16 -106.5zM441 242
q0 38 -10 69.5t-29 55t-46 36.5t-61 13q-41 0 -78 -21t-56 -50v-206q19 -29 56 -50.5t78 -21.5q34 0 61 13t46 36.5t29 55.5t10 70z" />
    <glyph glyph-name="q" unicode="q" horiz-adv-x="575" 
d="M503 -147q0 -17 -13 -30t-33 -13q-17 0 -30.5 13t-13.5 30v217q-29 -40 -70 -61t-88 -21q-48 0 -87.5 17.5t-68 50t-44 80t-15.5 106.5t15.5 106.5t44 79.5t68 49.5t87.5 17.5q49 0 90.5 -22.5t67.5 -58.5v32q0 17 13.5 30t32.5 13q18 0 31 -13t13 -30v-593zM413 139v206
q-8 14 -22.5 27t-32.5 23t-38.5 15.5t-40.5 5.5q-34 0 -61 -13t-45.5 -36.5t-29 -55t-10.5 -69.5t10.5 -70t29 -55.5t45.5 -36.5t61 -13q20 0 40.5 6t38.5 16t32.5 23t22.5 27z" />
    <glyph glyph-name="r" unicode="r" horiz-adv-x="338" 
d="M326 450q0 -20 -13 -32.5t-32 -14.5q-35 -3 -66.5 -19t-53.5 -48v-298q0 -18 -13 -31t-32 -13h-1q-18 1 -30.5 13.5t-12.5 30.5v408q0 17 13 30t33 13q17 0 30 -13t13 -30v-38q10 14 23 28.5t29 26.5t34.5 19.5t38.5 7.5q18 0 29 -11.5t11 -28.5z" />
    <glyph glyph-name="s" unicode="s" horiz-adv-x="468" 
d="M426 136q0 -30 -13 -57.5t-37.5 -47.5t-61 -31.5t-84.5 -11.5q-25 0 -50.5 3.5t-49 11.5t-45 19.5t-38.5 28.5q-11 9 -11 24q0 16 12 26.5t27 10.5q13 0 23 -7q27 -20 62.5 -33t73.5 -13q52 0 78.5 21t26.5 54q0 26 -21.5 40t-54.5 23t-71.5 17.5t-71.5 24t-54.5 42
t-21.5 72.5q0 28 12 54t35.5 45.5t58 31t78.5 11.5q26 0 50 -4t45.5 -11t39.5 -18t33 -25q9 -9 9 -22q0 -15 -10.5 -25t-24.5 -10q-13 0 -21 7q-23 16 -54 26.5t-66 10.5q-46 0 -72.5 -19.5t-26.5 -48.5q0 -24 21.5 -36.5t55 -21.5t71.5 -17.5t71 -24.5t55 -44t22 -76z" />
    <glyph glyph-name="t" unicode="t" horiz-adv-x="306" 
d="M297 35q0 -12 -7 -20.5t-19 -15t-29 -9t-37 -2.5q-58 0 -87 30.5t-29 87.5v299h-47q-17 0 -28 11.5t-11 28.5q0 16 11 27t28 11h47v95q0 17 13 30t33 13q18 0 31 -13t13 -30v-95h66q16 0 27 -11.5t11 -28.5q0 -16 -11 -27t-27 -11h-66v-278q0 -28 12.5 -44t34.5 -16
q8 0 16.5 2.5t16.5 2.5q16 0 27 -10.5t11 -26.5z" />
    <glyph glyph-name="u" unicode="u" horiz-adv-x="559" 
d="M487 38q0 -18 -13 -31t-32 -13q-18 0 -31 13t-13 31v28q-27 -31 -71.5 -54.5t-100.5 -23.5q-77 0 -115.5 38.5t-38.5 114.5v305q0 17 13 30t33 13q17 0 30 -13t13 -30v-274q0 -30 7 -50t21 -32.5t33 -17.5t42 -5q42 0 78 21t56 48v310q0 17 13 30t33 13q17 0 30 -13
t13 -30v-408v0z" />
    <glyph glyph-name="v" unicode="v" horiz-adv-x="496" 
d="M477 445q0 -9 -3 -16l-162 -393q-8 -19 -25.5 -30.5t-38.5 -11.5h-2q-20 0 -36.5 11.5t-24.5 30.5l-163 393q-3 8 -3 16q0 16 12.5 30t32.5 14q13 0 24 -7.5t17 -20.5l143 -358l142 358q6 13 17 20.5t24 7.5q21 0 33.5 -13.5t12.5 -30.5z" />
    <glyph glyph-name="w" unicode="w" horiz-adv-x="743" 
d="M721 446q0 -5 -2 -12l-126 -399q-6 -18 -21 -29.5t-35 -11.5h-1q-20 0 -35 11.5t-21 29.5l-108 337l-109 -337q-5 -18 -20.5 -29.5t-35.5 -11.5h-2q-19 0 -34 11.5t-21 29.5l-126 399q-2 7 -2 12q0 16 12 29.5t31 13.5q15 0 27 -8.5t17 -21.5l103 -345l112 341
q6 16 18.5 25t30.5 9q16 0 28.5 -9t17.5 -25l113 -341l103 345q4 13 16 21.5t26 8.5q20 0 32 -13t12 -30z" />
    <glyph glyph-name="x" unicode="x" horiz-adv-x="491" 
d="M448 34q0 -14 -11.5 -27.5t-30.5 -13.5q-9 0 -17.5 4.5t-14.5 12.5l-129 179l-129 -179q-12 -17 -32 -17q-16 0 -28.5 12.5t-12.5 28.5q0 14 8 24l139 190l-129 177q-8 11 -8 22q0 15 11.5 28.5t30.5 13.5q21 0 33 -17l117 -164l117 163q5 9 14 13.5t19 4.5
q17 0 29.5 -12.5t12.5 -28.5q0 -15 -8 -24l-129 -176l141 -190q7 -11 7 -24z" />
    <glyph glyph-name="y" unicode="y" horiz-adv-x="496" 
d="M477 445q0 -9 -3 -15l-216 -523q-23 -55 -61.5 -79t-87.5 -24q-12 0 -23.5 2t-20.5 6t-14.5 12t-5.5 20q0 17 12 28.5t28 11.5q7 0 12 -0.5t11 0.5q21 0 37 10t28 36l28 64l-179 436q-3 7 -3 15q0 16 12.5 30t32.5 14q13 0 24 -7.5t17 -20.5l143 -358l142 358
q5 13 16.5 20.5t25.5 7.5q20 0 32.5 -13.5t12.5 -30.5z" />
    <glyph glyph-name="z" unicode="z" horiz-adv-x="474" 
d="M430 40q0 -17 -10.5 -28.5t-26.5 -11.5h-307q-17 0 -29.5 12.5t-12.5 32.5q0 8 3 15.5t7 13.5l248 331h-221q-16 0 -27 11.5t-11 28.5q0 16 11 27t27 11h304q15 0 27.5 -12t12.5 -32q0 -16 -9 -28l-251 -334h228q16 0 26.5 -10.5t10.5 -26.5z" />
    <glyph glyph-name="braceleft" unicode="{" horiz-adv-x="268" 
d="M257 -158q0 -14 -9 -23t-24 -9h-34q-26 0 -50 10t-42.5 28t-30 44t-11.5 59v197q0 25 -7 41.5t-24 22.5q-12 5 -19.5 12.5t-7.5 20.5q0 12 7.5 19t19.5 12q17 6 24 22.5t7 41.5v196q0 33 11.5 59t30 44.5t42.5 28.5t50 10h34q15 0 24 -9t9 -23q0 -13 -9 -22t-24 -9h-34
q-27 0 -46 -22t-19 -56v-204q0 -32 -10.5 -55t-35.5 -34q25 -11 35.5 -34t10.5 -55v-203q0 -35 19 -57t46 -22h34q15 0 24 -9t9 -22z" />
    <glyph glyph-name="bar" unicode="|" horiz-adv-x="212" 
d="M138 5q0 -13 -9.5 -22t-22.5 -9t-22 9t-9 22v658q0 13 9 21.5t24 8.5q12 0 21 -8.5t9 -21.5v-658v0z" />
    <glyph glyph-name="braceright" unicode="}" horiz-adv-x="268" 
d="M269 244q0 -13 -7 -20t-20 -12q-17 -6 -24 -22.5t-7 -41.5v-197q0 -33 -11 -59t-29.5 -44t-42.5 -28t-50 -10h-34q-15 0 -24 9t-9 23q0 13 9 22t24 9h34q27 0 46 22t19 57v203q0 32 10.5 55t35.5 34q-25 11 -35.5 34t-10.5 55v204q0 34 -19 56t-46 22h-34q-15 0 -24 9
t-9 24q0 12 9 21t24 9h34q26 0 50 -10t42.5 -28.5t29.5 -44.5t11 -59v-196q0 -25 7 -41.5t24 -22.5q13 -5 20 -12t7 -20z" />
    <glyph glyph-name="asciitilde" unicode="~" horiz-adv-x="505" 
d="M474 628q-5 -41 -13.5 -78.5t-24.5 -66t-40.5 -46t-59.5 -17.5q-31 0 -50.5 14t-32.5 34.5t-21 45t-16.5 45t-19 34t-28.5 13.5q-16 0 -27.5 -11.5t-20.5 -32.5t-15.5 -49.5t-10.5 -61.5q-2 -13 -10.5 -20t-21.5 -7q-16 0 -24 10t-8 24q5 42 14 79.5t25 66t40 45.5t59 17
q31 0 51 -13.5t32.5 -35t21 -45.5t16.5 -45t19 -34.5t28 -13.5q16 0 28 11.5t21 32.5t15 50t10 63q1 12 10 19.5t22 7.5q15 0 23.5 -10.5t8.5 -24.5z" />
    <glyph glyph-name="uni00A0" unicode="&#xa0;" horiz-adv-x="257" 
 />
    <glyph glyph-name="exclamdown" unicode="&#xa1;" horiz-adv-x="237" 
d="M180 432q-1 -26 -18.5 -44t-43.5 -18q-25 0 -43.5 18t-18.5 44q0 12 5 23t13.5 19.5t20 13.5t23.5 5q13 0 24 -5t19.5 -13.5t13.5 -19.5t5 -23zM172 -137q0 -22 -16 -37.5t-37 -15.5q-23 0 -38.5 15.5t-14.5 37.5q0 1 1 29t2 69t2.5 90t3.5 92t3 75t1 39q1 16 12 26.5
t28 10.5q16 0 26.5 -10.5t11.5 -26.5q0 -7 1.5 -39t3 -75t3.5 -92t3.5 -90t2.5 -69t1 -29z" />
    <glyph glyph-name="cent" unicode="&#xa2;" horiz-adv-x="496" 
d="M457 74q0 -13 -8 -22q-22 -26 -55 -42t-77 -20v-62q0 -13 -10 -22.5t-23 -9.5q-15 0 -25 9.5t-10 22.5v63q-47 7 -84.5 28.5t-65 54t-42 75.5t-14.5 93q0 49 14.5 91.5t42 75.5t65 54.5t84.5 28.5v45q0 13 10 22.5t25 9.5q13 0 23 -9.5t10 -22.5v-44q45 -4 77.5 -20.5
t54.5 -41.5q7 -11 7 -21q0 -18 -13 -29t-28 -11q-7 0 -12.5 2.5t-10.5 6.5q-18 15 -36 23t-39 11v-343q21 2 39 11t36 24q9 7 23 7q15 0 28.5 -10.5t13.5 -27.5zM249 73v336q-54 -14 -84 -59t-30 -108q0 -64 30 -109.5t84 -59.5z" />
    <glyph glyph-name="sterling" unicode="&#xa3;" horiz-adv-x="527" 
d="M510 51q0 -16 -12.5 -28t-31.5 -20t-42 -12t-46 -4q-34 0 -56 7t-40.5 15.5t-37.5 15.5t-46 7q-19 0 -42.5 -7t-47.5 -19q-5 -2 -9 -2.5t-9 -0.5q-16 0 -27 10.5t-11 27.5q0 11 5 21t16 16q48 27 74 61t26 71q0 16 -4 30.5t-11 27.5h-114q-13 0 -21.5 9t-8.5 23
q0 12 8.5 21t21.5 9h72q-13 15 -25 30.5t-22 33.5t-16 38.5t-6 44.5q0 43 19 79.5t50.5 63.5t73 42t86.5 15q31 0 59.5 -5.5t53 -16.5t45 -27t33.5 -37q3 -5 4.5 -10t1.5 -10q0 -19 -13 -31t-32 -12t-33 14q-11 10 -23 19.5t-25.5 17t-28.5 12t-31 4.5q-27 0 -51 -8.5
t-42.5 -24t-29 -37.5t-10.5 -49q0 -25 7 -45t17.5 -37t23 -33t24.5 -31h125q13 0 21.5 -9.5t8.5 -22.5t-8.5 -21.5t-21.5 -8.5h-96q2 -8 4 -17t2 -19q0 -43 -21.5 -74.5t-51.5 -52.5q11 4 24.5 6.5t26.5 2.5q23 0 40.5 -6t33.5 -13.5t32.5 -13.5t36.5 -6q13 0 24 3t21 7
t19 6.5t17 2.5q17 0 32 -11.5t15 -31.5z" />
    <glyph glyph-name="currency" unicode="&#xa4;" horiz-adv-x="605" 
d="M563 112q0 -15 -11 -27t-28 -12q-15 0 -26 11l-51 50q-29 -21 -65 -32t-80 -11t-80.5 11.5t-65.5 32.5l-50 -51q-5 -6 -12 -8t-14 -2q-14 0 -26.5 10.5t-12.5 26.5q0 15 11 26l51 51q-22 31 -33 67.5t-11 77.5t11 78t34 67l-53 52q-11 12 -11 27q0 14 11 26t27 12t27 -11
l53 -53q29 20 65 31.5t79 11.5t79 -11.5t65 -31.5l52 53q11 10 26 10q14 0 26.5 -10.5t12.5 -27.5q0 -15 -11 -26l-52 -52q23 -30 34.5 -67t11.5 -78t-12 -78t-33 -68l51 -50q11 -11 11 -25zM455 333q0 31 -10 60.5t-29 51.5t-48 35t-66 13q-36 0 -64.5 -13t-48 -35
t-29.5 -51.5t-10 -60.5q0 -32 10 -61t29.5 -51.5t48 -36t64.5 -13.5q37 0 66 13.5t48 36t29 51.5t10 61z" />
    <glyph glyph-name="yen" unicode="&#xa5;" horiz-adv-x="631" 
d="M616 149q0 -12 -8.5 -20.5t-20.5 -8.5h-222v-77q0 -20 -14 -34.5t-34 -14.5q-21 0 -35.5 13.5t-14.5 35.5v77h-221q-13 0 -21 9t-8 22q0 12 8 20.5t21 8.5h221v100h-222q-12 0 -20 8.5t-8 21.5t8 21t20 8h181l-176 263q-8 9 -8 24q0 16 12.5 31.5t34.5 15.5
q11 0 22.5 -5.5t18.5 -15.5l186 -284l185 283q6 11 17 16t22 5q21 0 34.5 -14t13.5 -32q0 -14 -7 -25l-176 -262h182q13 0 21 -8.5t8 -22.5q0 -12 -8 -20t-21 -8h-222v-100h222q12 0 20.5 -9t8.5 -22z" />
    <glyph glyph-name="brokenbar" unicode="&#xa6;" horiz-adv-x="212" 
d="M138 400q0 -12 -9.5 -21.5t-22.5 -9.5t-22 9.5t-9 21.5v259q0 12 9 21t24 9q12 0 21 -9t9 -21v-259zM138 9q0 -12 -9.5 -21.5t-22.5 -9.5t-22 9.5t-9 21.5v259q0 12 9 21t24 9q12 0 21 -9t9 -21v-259z" />
    <glyph glyph-name="section" unicode="&#xa7;" horiz-adv-x="472" 
d="M426 68q0 -35 -14.5 -63t-40.5 -47t-62 -29t-79 -10q-30 0 -56.5 5t-49.5 13.5t-42 19.5t-33 25q-10 9 -10 24q0 14 10 24.5t24 10.5q12 0 20 -6q26 -21 61.5 -36.5t75.5 -15.5q49 0 79 20.5t30 58.5q0 29 -21.5 44.5t-54.5 25.5t-71.5 18.5t-71.5 24t-54.5 42
t-21.5 71.5q0 26 9 47t24.5 36.5t35.5 26.5t41 17q-52 17 -81 46t-29 78q0 28 12.5 53t36.5 44t58 30t77 11q32 0 63.5 -6.5t56.5 -17t40.5 -24.5t15.5 -30q0 -14 -9 -24t-23 -10q-10 0 -18 6q-26 21 -59 31t-64 10q-45 0 -73 -19.5t-28 -53.5q0 -26 21.5 -40t55 -22.5
t71.5 -17t71 -24.5t55 -43t22 -74q0 -42 -22.5 -75t-67.5 -53q40 -16 65 -44t25 -78zM338 304q0 21 -9.5 35t-24 24t-33 16.5t-38.5 11.5q-60 -16 -81.5 -39t-21.5 -53q0 -21 11 -34.5t29.5 -23t42.5 -16t49 -12.5q37 16 56.5 37.5t19.5 53.5z" />
    <glyph glyph-name="dieresis" unicode="&#xa8;" horiz-adv-x="278" 
d="M295 606q0 -23 -15.5 -38t-36.5 -15q-22 0 -37.5 15t-15.5 38q0 21 15.5 36.5t37.5 15.5q21 0 36.5 -15.5t15.5 -36.5zM87 606q0 -23 -15 -38t-37 -15t-37 15t-15 38q0 21 15 36.5t37 15.5t37 -15.5t15 -36.5z" />
    <glyph glyph-name="copyright" unicode="&#xa9;" horiz-adv-x="778" 
d="M734 334q0 -71 -27 -134t-74 -110t-109.5 -74t-134.5 -27q-71 0 -134 27t-110 74t-74 110t-27 134q0 72 27 134.5t74 109.5t110 74t134 27q72 0 134.5 -27t109.5 -74t74 -109.5t27 -134.5zM702 334q0 65 -24.5 121.5t-67.5 99.5t-99.5 67.5t-121.5 24.5q-64 0 -121 -24.5
t-100 -67.5t-67.5 -99.5t-24.5 -121.5q0 -64 24.5 -121t67.5 -100t100 -67.5t121 -24.5q65 0 121.5 24.5t99.5 67.5t67.5 100t24.5 121zM535 191q0 -8 -5 -13q-27 -28 -61.5 -42t-76.5 -14q-43 0 -81 16t-66 44.5t-44.5 67.5t-16.5 85t16.5 85t44.5 67t66 44t81 16
q42 0 76.5 -14.5t60.5 -42.5q5 -4 5 -11q0 -8 -5 -14t-13 -6t-12 6q-22 23 -51.5 35t-60.5 12q-34 0 -64.5 -12.5t-53.5 -36t-37 -56.5t-14 -72q0 -38 14 -71t37 -57t53.5 -37.5t64.5 -13.5q31 0 61 13t50 35q5 6 13 6q7 0 13 -5.5t6 -13.5z" />
    <glyph glyph-name="ordfeminine" unicode="&#xaa;" horiz-adv-x="380" 
d="M322 353q0 -14 -9.5 -23.5t-23.5 -9.5q-14 -1 -24 8t-10 22v10q-16 -18 -42.5 -30t-62.5 -12q-21 0 -41 7t-35.5 20t-25.5 32.5t-10 44.5q0 26 10 45.5t25.5 32t35.5 18.5t41 6q36 0 62.5 -11.5t42.5 -28.5v51q0 29 -22 45.5t-54 16.5q-21 0 -41.5 -7.5t-38.5 -22.5
q-7 -5 -16 -5t-17.5 7t-8.5 18q0 9 7 16q11 12 26 20.5t31.5 14t33.5 8t34 2.5q26 0 50 -6t42.5 -19.5t29.5 -35.5t11 -54v-180zM255 397v50q-13 17 -34 26t-45 9q-30 0 -50.5 -16.5t-20.5 -43.5q0 -28 20.5 -44.5t50.5 -16.5q24 0 45 9.5t34 26.5z" />
    <glyph glyph-name="guillemotleft" unicode="&#xab;" horiz-adv-x="463" 
d="M399 90q0 -13 -9.5 -23.5t-23.5 -10.5q-15 0 -23 11l-113 127q-10 11 -14 23.5t-4 25.5t4.5 25.5t13.5 23.5l112 124q9 10 23 10q13 0 23 -9t10 -23q0 -12 -7 -20l-118 -131l118 -133q8 -10 8 -20zM242 90q0 -13 -9 -23.5t-23 -10.5q-15 0 -23 11l-114 127q-18 21 -18 48
q0 28 19 49l113 125q8 10 22 10q12 0 22.5 -9t10.5 -23q0 -12 -7 -20l-119 -131l119 -133q7 -10 7 -20z" />
    <glyph glyph-name="logicalnot" unicode="&#xac;" horiz-adv-x="507" 
d="M471 233q0 -13 -9 -22t-22 -9t-22 9t-9 22v167h-357q-12 0 -20.5 9t-8.5 22q0 12 8.5 20.5t20.5 8.5h354q27 0 46 -19t19 -46v-162v0z" />
    <glyph glyph-name="uni00AD" unicode="&#xad;" horiz-adv-x="300" 
d="M234 281q16 0 27 -11t11 -27t-11 -28t-27 -12h-168q-16 0 -27 11t-11 28q0 16 10.5 27.5t27.5 11.5h168v0z" />
    <glyph glyph-name="registered" unicode="&#xae;" horiz-adv-x="494" 
d="M459 465q0 -44 -16.5 -82.5t-45 -67.5t-67.5 -45.5t-83 -16.5t-82.5 16.5t-67.5 45.5t-45.5 67.5t-16.5 82.5t16.5 83t45.5 67.5t67.5 45t82.5 16.5t83 -16.5t67.5 -45t45 -67.5t16.5 -83zM429 465q0 38 -14.5 71t-39 57.5t-57.5 39t-71 14.5t-71 -14.5t-58 -39
t-39.5 -57.5t-14.5 -71t14.5 -71t39.5 -58t58 -39.5t71 -14.5t71 14.5t57.5 39.5t39 58t14.5 71zM343 512q0 -20 -7.5 -34t-18 -22.5t-21 -12t-15.5 -3.5l50 -75q4 -5 4 -9q0 -7 -5.5 -12.5t-12.5 -5.5q-9 0 -14 8l-61 93h-43v-87q0 -6 -5 -10.5t-13 -4.5q-6 0 -10.5 4.5
t-4.5 10.5v206q0 11 8.5 19.5t20.5 8.5h70q31 0 54.5 -20t23.5 -54zM309 512q0 20 -14 32.5t-30 12.5h-66v-88h66q16 0 30 12t14 31z" />
    <glyph glyph-name="macron" unicode="&#xaf;" horiz-adv-x="363" 
d="M363 598q0 -13 -7.5 -21t-18.5 -8h-311q-11 0 -18.5 8t-7.5 21q0 11 7.5 18.5t18.5 7.5h311q11 0 18.5 -7.5t7.5 -18.5z" />
    <glyph glyph-name="degree" unicode="&#xb0;" horiz-adv-x="296" 
d="M273 551q0 -26 -9.5 -49t-27 -39.5t-40.5 -26.5t-49 -10t-48.5 10t-39.5 26.5t-27 39.5t-10 49t10 49t27 40t39.5 27t48.5 10t49 -10t40.5 -27t27 -40t9.5 -49zM220 551q0 30 -21.5 51t-51.5 21q-29 0 -49.5 -21t-20.5 -51t20.5 -50.5t49.5 -20.5q30 0 51.5 20.5
t21.5 50.5z" />
    <glyph glyph-name="plusminus" unicode="&#xb1;" horiz-adv-x="500" 
d="M477 355q0 -13 -8 -21.5t-20 -8.5h-166v-186q0 -13 -9.5 -22.5t-23.5 -9.5t-23 9.5t-9 22.5v186h-167q-12 0 -20 8.5t-8 21.5q0 12 8 20.5t20 8.5h167v179q0 12 9 21.5t25 9.5q12 0 21.5 -9.5t9.5 -21.5v-179h166q12 0 20 -8.5t8 -20.5zM477 30q0 -13 -8 -21.5t-20 -8.5
h-398q-12 0 -20 8.5t-8 21.5t8 21t20 8h398q12 0 20 -8t8 -21z" />
    <glyph glyph-name="uni00B2" unicode="&#xb2;" horiz-adv-x="390" 
d="M352 451q0 -13 -8 -21.5t-19 -8.5h-256q-11 0 -18.5 8t-7.5 20q0 11 4.5 18.5t13.5 12.5q55 39 95.5 71t66.5 58.5t38.5 49t12.5 43.5q0 18 -6.5 31t-17.5 21.5t-26 12t-30 3.5q-27 0 -52 -9.5t-44 -24.5q-9 -7 -18 -7q-11 0 -20 8t-9 21q0 12 8 20q12 12 28.5 21
t35 15.5t37.5 9.5t36 3q29 0 56 -7.5t47.5 -22t32.5 -37.5t12 -53q0 -28 -14 -56t-39 -56t-61 -57t-79 -60h174q11 0 19 -8.5t8 -18.5z" />
    <glyph glyph-name="uni00B3" unicode="&#xb3;" horiz-adv-x="390" 
d="M348 531q0 -52 -41.5 -84.5t-113.5 -32.5q-23 0 -50 5.5t-48.5 15t-36 21.5t-14.5 27q0 12 8.5 21.5t21.5 9.5q9 0 17 -6q21 -18 47.5 -27.5t52.5 -9.5q42 0 65 17t23 46q0 36 -29 50t-71 14h-15q-10 0 -19 6.5t-9 20.5t9 21t19 7h14q41 0 67.5 13t26.5 46
q0 29 -24.5 43.5t-60.5 14.5q-25 0 -49 -7.5t-44 -26.5q-7 -5 -17 -5t-18.5 7.5t-8.5 19.5q0 11 7 18q23 24 57.5 37.5t78.5 13.5q68 0 108 -29t40 -79q0 -20 -8 -36t-21 -27.5t-28.5 -18.5t-31.5 -10q15 -1 32 -7.5t31.5 -18.5t23.5 -29.5t9 -40.5z" />
    <glyph glyph-name="acute" unicode="&#xb4;" horiz-adv-x="233" 
d="M192 677q0 -13 -9 -20l-118 -101q-7 -6 -14 -6q-9 0 -16.5 7t-7.5 17t6 16l108 107q8 8 21 8q10 0 20 -8t10 -20z" />
    <glyph glyph-name="mu" unicode="&#xb5;" 
d="M558 28q0 -15 -9.5 -27.5t-31.5 -12.5q-19 0 -36.5 4t-33.5 13t-27.5 26t-17.5 43q-25 -36 -63.5 -61t-85.5 -25q-38 0 -60 12.5t-32 30.5v-178q0 -17 -13 -30t-32 -13q-18 0 -31 13t-13 30v593q0 17 13 30t33 13q17 0 30 -13t13 -30v-274q0 -57 28 -81.5t76 -24.5
q21 0 40.5 5.5t36.5 15t31.5 22.5t24.5 27v310q0 17 13 30t33 13q17 0 30 -13t13 -30v-324q0 -28 11 -38.5t24.5 -16t24.5 -12t11 -27.5z" />
    <glyph glyph-name="paragraph" unicode="&#xb6;" horiz-adv-x="449" 
d="M385 -83q0 -9 -7.5 -16t-18.5 -7q-10 0 -17 7t-7 16v700h-86v-700q0 -9 -7.5 -16t-18.5 -7q-10 0 -17 7t-7 16v406q-36 0 -67 13.5t-54.5 37t-37 54.5t-13.5 67t13.5 67t37 54.5t54.5 37t67 13.5h138q20 0 34 -14t14 -33v-703v0z" />
    <glyph glyph-name="periodcentered" unicode="&#xb7;" horiz-adv-x="237" 
d="M180 244q0 -12 -5 -23t-13 -19.5t-19.5 -13.5t-24.5 -5q-12 0 -23.5 5t-19.5 13.5t-13 19.5t-5 23q0 26 18 44t43 18q26 0 44 -18t18 -44z" />
    <glyph glyph-name="cedilla" unicode="&#xb8;" horiz-adv-x="209" 
d="M209 -111q0 -38 -31 -59.5t-75 -21.5q-15 0 -33 2.5t-33 7.5t-25 13t-10 19q0 9 7 15.5t15 6.5q6 0 9 -2q17 -10 34.5 -14.5t33.5 -4.5q23 0 40.5 10t17.5 29q0 15 -8.5 24t-25.5 9q-13 0 -23.5 -7.5t-22.5 -7.5q-10 0 -17 8t-7 16q0 3 0.5 4.5t1.5 3.5l20 54
q3 10 11.5 16.5t19.5 6.5q8 0 13 -4.5t5 -12.5q0 -5 -1 -8l-19 -46q17 11 37 11q29 0 47.5 -18.5t18.5 -49.5z" />
    <glyph glyph-name="uni00B9" unicode="&#xb9;" horiz-adv-x="249" 
d="M189 449q0 -14 -10 -24t-26 -10q-14 0 -24 10t-10 24v282l-51 -53q-9 -8 -20 -8t-20 8.5t-9 21.5q0 12 9 20l89 89q8 8 16.5 13t19.5 5q15 0 25.5 -9.5t10.5 -23.5v-345v0z" />
    <glyph glyph-name="ordmasculine" unicode="&#xba;" horiz-adv-x="405" 
d="M368 483q0 -34 -12 -64t-33 -52.5t-51.5 -35.5t-69.5 -13q-38 0 -68.5 13t-51.5 35.5t-33 52.5t-12 64t12 64t33 52.5t51.5 35.5t68.5 13q39 0 69.5 -13t51.5 -35.5t33 -52.5t12 -64zM299 483q0 47 -25.5 77.5t-71.5 30.5t-70.5 -30.5t-24.5 -77.5q0 -48 24.5 -79
t70.5 -31t71.5 31t25.5 79z" />
    <glyph glyph-name="guillemotright" unicode="&#xbb;" horiz-adv-x="463" 
d="M408 242q0 -27 -19 -48l-113 -127q-9 -11 -23 -11q-13 0 -23 9.5t-10 23.5q0 12 8 21l118 133l-118 131q-8 8 -8 19q0 12 9 22.5t23 10.5t24 -10l113 -125q19 -22 19 -49zM251 243q0 -28 -18 -49l-113 -127q-9 -11 -23 -11q-13 0 -23 9.5t-10 23.5q0 12 8 21l118 133
l-118 131q-8 9 -8 19q0 13 9 23t24 10q14 0 23 -10l113 -124q9 -11 13.5 -23.5t4.5 -25.5z" />
    <glyph glyph-name="onequarter" unicode="&#xbc;" horiz-adv-x="787" 
d="M759 126q0 -13 -8 -21.5t-18 -8.5h-36v-68q0 -14 -10 -24t-25 -10q-14 0 -24 10t-10 24v68h-176q-10 0 -18 8t-8 21q0 8 4 15.5t9 14.5l144 219q11 17 26 24.5t34 7.5q11 0 21 -4t17.5 -11t11.5 -16t4 -19v-204h36q10 0 18 -8t8 -18zM588 650q0 -7 -4 -13l-405 -634
q-8 -11 -21 -11q-11 0 -19 7.5t-8 18.5q0 6 5 12l405 635q7 11 21 11q11 0 18.5 -8.5t7.5 -17.5zM189 295q0 -14 -10 -24t-26 -10q-14 0 -24 10t-10 24v282l-51 -53q-9 -8 -20 -8t-20 8.5t-9 21.5q0 12 9 20l89 89q8 8 16.5 13t19.5 5q15 0 25.5 -9.5t10.5 -23.5v-345z
M628 152v187l-127 -187h127z" />
    <glyph glyph-name="onehalf" unicode="&#xbd;" horiz-adv-x="823" 
d="M784 30q0 -13 -8 -21.5t-19 -8.5h-256q-11 0 -18.5 8t-7.5 20q0 11 4.5 18.5t12.5 12.5q55 39 96 71t67 58.5t38.5 49t12.5 43.5q0 18 -6.5 31t-17.5 21.5t-26 12t-30 3.5q-28 0 -53 -9.5t-43 -24.5q-9 -7 -19 -7t-19 8t-9 21q0 12 8 20q12 12 28.5 21t34.5 15.5t37 9.5
t37 3q29 0 55.5 -7.5t47.5 -22t33 -37.5t12 -53q0 -28 -14 -56t-39 -56t-61 -57t-80 -60h175q11 0 19 -8.5t8 -18.5zM588 650q0 -7 -4 -13l-405 -634q-8 -11 -21 -11q-11 0 -19 7.5t-8 18.5q0 6 5 12l405 635q7 11 21 11q11 0 18.5 -8.5t7.5 -17.5zM189 295q0 -14 -10 -24
t-26 -10q-14 0 -24 10t-10 24v282l-51 -53q-9 -8 -20 -8t-20 8.5t-9 21.5q0 12 9 20l89 89q8 8 16.5 13t19.5 5q15 0 25.5 -9.5t10.5 -23.5v-345z" />
    <glyph glyph-name="threequarters" unicode="&#xbe;" horiz-adv-x="890" 
d="M863 126q0 -13 -8.5 -21.5t-18.5 -8.5h-36v-68q0 -14 -10 -24t-25 -10q-14 0 -24 10t-10 24v68h-176q-10 0 -18 8t-8 21q0 8 4 15.5t9 14.5l145 219q11 17 25.5 24.5t33.5 7.5q11 0 21 -4t17.5 -11t11.5 -16t4 -19v-204h36q10 0 18.5 -8t8.5 -18zM690 650q0 -7 -4 -13
l-405 -634q-8 -11 -21 -11q-11 0 -18.5 7.5t-7.5 18.5q0 6 4 12l405 635q8 11 21 11q11 0 18.5 -8.5t7.5 -17.5zM348 377q0 -52 -41.5 -84.5t-113.5 -32.5q-23 0 -50 5.5t-48.5 15t-36 21.5t-14.5 27q0 12 8.5 21.5t21.5 9.5q9 0 17 -6q21 -18 47.5 -27.5t52.5 -9.5
q42 0 65 17t23 46q0 36 -29 50t-71 14h-15q-10 0 -19 6.5t-9 20.5t9 21t19 7h14q41 0 67.5 13t26.5 46q0 29 -24.5 43.5t-60.5 14.5q-25 0 -49 -7.5t-44 -26.5q-7 -5 -17 -5t-18.5 7.5t-8.5 19.5q0 11 7 18q23 24 57.5 37.5t78.5 13.5q68 0 108 -29t40 -79q0 -20 -8 -36
t-21 -27.5t-28.5 -18.5t-31.5 -10q15 -1 32 -7.5t31.5 -18.5t23.5 -29.5t9 -40.5zM731 152v187l-126 -187h126z" />
    <glyph glyph-name="questiondown" unicode="&#xbf;" horiz-adv-x="395" 
d="M298 431q0 -25 -18 -43.5t-44 -18.5t-44 18.5t-18 43.5t18 43.5t44 18.5t44 -18.5t18 -43.5zM433 -89q0 -15 -9 -27q-17 -19 -39 -34t-47.5 -25t-53.5 -15t-57 -5q-46 0 -83 11.5t-62.5 32.5t-39.5 50t-14 61q0 38 14 65t34.5 47.5t44.5 37t45 32.5t35 33.5t14 40.5
q0 11 -5.5 20.5t-5.5 19.5q0 14 10 26.5t29 12.5q15 0 25.5 -9.5t18 -22.5t11 -28t3.5 -26q0 -32 -12.5 -54.5t-31.5 -40.5t-41.5 -32.5t-41 -30t-31.5 -34t-13 -41.5q0 -34 26 -58.5t81 -24.5q40 0 70.5 13.5t54.5 36.5q11 10 28 10t30 -12t13 -30z" />
    <glyph glyph-name="Agrave" unicode="&#xc0;" horiz-adv-x="665" 
d="M637 47q0 -19 -14.5 -36t-38.5 -17q-16 0 -29 8.5t-19 23.5l-44 113h-319l-44 -113q-6 -15 -19.5 -23.5t-28.5 -8.5q-24 0 -38.5 16t-14.5 37q0 10 3 19l221 554q9 24 31 38.5t48 14.5q26 1 48.5 -13.5t32.5 -39.5l221 -554q4 -10 4 -19zM464 226l-132 340l-131 -340h263
zM365 741q0 -9 -6.5 -16.5t-17.5 -7.5q-7 0 -15 6l-117 101q-9 7 -9 20q0 11 8.5 19.5t21.5 8.5q12 0 20 -8l109 -107q6 -8 6 -16z" />
    <glyph glyph-name="Aacute" unicode="&#xc1;" horiz-adv-x="665" 
d="M637 47q0 -19 -14.5 -36t-38.5 -17q-16 0 -29 8.5t-19 23.5l-44 113h-319l-44 -113q-6 -15 -19.5 -23.5t-28.5 -8.5q-24 0 -38.5 16t-14.5 37q0 10 3 19l221 554q9 24 31 38.5t48 14.5q26 1 48.5 -13.5t32.5 -39.5l221 -554q4 -10 4 -19zM464 226l-132 340l-131 -340h263
zM466 844q0 -13 -9 -20l-118 -101q-7 -6 -14 -6q-9 0 -16.5 7t-7.5 17t6 16l108 107q8 8 21 8q10 0 20 -8t10 -20z" />
    <glyph glyph-name="Acircumflex" unicode="&#xc2;" horiz-adv-x="665" 
d="M637 47q0 -19 -14.5 -36t-38.5 -17q-16 0 -29 8.5t-19 23.5l-44 113h-319l-44 -113q-6 -15 -19.5 -23.5t-28.5 -8.5q-24 0 -38.5 16t-14.5 37q0 10 3 19l221 554q9 24 31 38.5t48 14.5q26 1 48.5 -13.5t32.5 -39.5l221 -554q4 -10 4 -19zM464 226l-132 340l-131 -340h263
zM455 740q0 -8 -6.5 -16t-19.5 -8q-11 0 -18 9l-78 99l-76 -98q-7 -9 -19 -9q-10 0 -18 6.5t-8 16.5q0 5 5 13l58 89q10 14 25 22.5t34 8.5q17 0 32 -8.5t24 -22.5l61 -89q4 -5 4 -13z" />
    <glyph glyph-name="Atilde" unicode="&#xc3;" horiz-adv-x="665" 
d="M637 47q0 -19 -14.5 -36t-38.5 -17q-16 0 -29 8.5t-19 23.5l-44 113h-319l-44 -113q-6 -15 -19.5 -23.5t-28.5 -8.5q-24 0 -38.5 16t-14.5 37q0 10 3 19l221 554q9 24 31 38.5t48 14.5q26 1 48.5 -13.5t32.5 -39.5l221 -554q4 -10 4 -19zM464 226l-132 340l-131 -340h263
zM490 833q-1 -22 -7.5 -42.5t-18.5 -36t-30 -24.5t-42 -9q-27 0 -43 13.5t-28 29.5t-22.5 29.5t-27.5 13.5q-16 0 -27.5 -13.5t-16.5 -43.5q-1 -11 -9.5 -18t-19.5 -7q-10 0 -16 7t-6 16q0 21 7 42t19.5 36.5t31 25t41.5 9.5q26 0 42 -13.5t27.5 -29t23 -29t28.5 -13.5
q16 0 27.5 13.5t15.5 42.5q2 11 10 18t19 7t16.5 -7.5t5.5 -16.5z" />
    <glyph glyph-name="Adieresis" unicode="&#xc4;" horiz-adv-x="665" 
d="M637 47q0 -19 -14.5 -36t-38.5 -17q-16 0 -29 8.5t-19 23.5l-44 113h-319l-44 -113q-6 -15 -19.5 -23.5t-28.5 -8.5q-24 0 -38.5 16t-14.5 37q0 10 3 19l221 554q9 24 31 38.5t48 14.5q26 1 48.5 -13.5t32.5 -39.5l221 -554q4 -10 4 -19zM464 226l-132 340l-131 -340h263
zM489 773q0 -23 -15.5 -38t-36.5 -15q-22 0 -37.5 15t-15.5 38q0 21 15.5 36.5t37.5 15.5q21 0 36.5 -15.5t15.5 -36.5zM281 773q0 -23 -15 -38t-37 -15t-37 15t-15 38q0 21 15 36.5t37 15.5t37 -15.5t15 -36.5z" />
    <glyph glyph-name="Aring" unicode="&#xc5;" horiz-adv-x="665" 
d="M637 47q0 -19 -14.5 -36t-38.5 -17q-16 0 -29 8.5t-19 23.5l-44 113h-319l-44 -113q-6 -15 -19.5 -23.5t-28.5 -8.5q-24 0 -38.5 16t-14.5 37q0 10 3 19l221 554q9 24 31 38.5t48 14.5q26 1 48.5 -13.5t32.5 -39.5l221 -554q4 -10 4 -19zM464 226l-132 340l-131 -340h263
zM433 790q0 -21 -8 -39t-21.5 -32t-32 -21.5t-38.5 -7.5t-38.5 7.5t-32 21.5t-21.5 32t-8 39q0 20 8 38.5t21.5 32t32 22t38.5 8.5t38.5 -8.5t32 -22t21.5 -32t8 -38.5zM388 790q0 23 -15.5 39t-39.5 16q-23 0 -39 -16t-16 -39t16 -39.5t39 -16.5q24 0 39.5 16.5t15.5 39.5z
" />
    <glyph glyph-name="AE" unicode="&#xc6;" horiz-adv-x="953" 
d="M908 45q0 -20 -12.5 -32.5t-30.5 -12.5h-344q-27 0 -46.5 19t-19.5 46v74h-255l-73 -121q-6 -11 -17 -16.5t-22 -5.5q-21 0 -35.5 14.5t-14.5 34.5q0 12 7 25l336 541q16 26 43.5 41t56.5 15h384q18 0 30.5 -12.5t12.5 -32.5q0 -18 -12.5 -30.5t-30.5 -12.5h-310v-195
h303q18 0 30.5 -12.5t12.5 -32.5q0 -17 -12.5 -30t-30.5 -13h-303v-208h310q18 0 30.5 -12.5t12.5 -30.5zM455 226v340l-207 -340h207z" />
    <glyph glyph-name="Ccedilla" unicode="&#xc7;" horiz-adv-x="679" 
d="M393 678q78 0 134 -28.5t94 -70.5q12 -14 12 -32q0 -19 -13.5 -32.5t-33.5 -13.5q-10 0 -19 3.5t-15 12.5q-29 33 -72 53t-87 20q-53 0 -97.5 -19t-77.5 -53.5t-51 -81t-18 -103.5q0 -56 18 -103.5t51 -81.5t77.5 -53t97.5 -19q45 0 86.5 18.5t72.5 53.5q6 8 15.5 12
t19.5 4q20 0 33 -13.5t13 -32.5q0 -9 -3 -17t-9 -14q-38 -42 -90 -69t-126 -30l-16 -39q17 11 37 11q29 0 47.5 -18.5t18.5 -49.5q0 -38 -31 -59.5t-75 -21.5q-15 0 -33 2.5t-33.5 7.5t-25.5 13t-10 19q0 9 7.5 15.5t15.5 6.5q6 0 9 -2q17 -10 34.5 -14.5t33.5 -4.5
q23 0 40.5 10t17.5 29q0 15 -8.5 24t-25.5 9q-13 0 -23.5 -7.5t-21.5 -7.5q-10 0 -17.5 7.5t-7.5 16.5v4.5t1 3.5l17 47q-66 7 -122.5 34t-98.5 72t-65.5 105t-23.5 132q0 77 27 140.5t73.5 109t110 70.5t136.5 25z" />
    <glyph glyph-name="Egrave" unicode="&#xc8;" 
d="M527 45q0 -20 -12.5 -32.5t-30.5 -12.5h-344q-27 0 -46 19t-19 46v537q0 27 19 46t46 19h344q18 0 30.5 -12.5t12.5 -32.5q0 -18 -12.5 -30.5t-30.5 -12.5h-310v-195h303q18 0 30.5 -12.5t12.5 -32.5q0 -17 -12.5 -30t-30.5 -13h-303v-208h310q18 0 30.5 -12.5
t12.5 -30.5zM329 741q0 -9 -6.5 -16.5t-17.5 -7.5q-7 0 -15 6l-117 101q-9 7 -9 20q0 11 8.5 19.5t21.5 8.5q12 0 20 -8l109 -107q6 -8 6 -16z" />
    <glyph glyph-name="Eacute" unicode="&#xc9;" 
d="M527 45q0 -20 -12.5 -32.5t-30.5 -12.5h-344q-27 0 -46 19t-19 46v537q0 27 19 46t46 19h344q18 0 30.5 -12.5t12.5 -32.5q0 -18 -12.5 -30.5t-30.5 -12.5h-310v-195h303q18 0 30.5 -12.5t12.5 -32.5q0 -17 -12.5 -30t-30.5 -13h-303v-208h310q18 0 30.5 -12.5
t12.5 -30.5zM431 844q0 -13 -9 -20l-118 -101q-7 -6 -14 -6q-9 0 -16.5 7t-7.5 17t6 16l108 107q8 8 21 8q10 0 20 -8t10 -20z" />
    <glyph glyph-name="Ecircumflex" unicode="&#xca;" 
d="M527 45q0 -20 -12.5 -32.5t-30.5 -12.5h-344q-27 0 -46 19t-19 46v537q0 27 19 46t46 19h344q18 0 30.5 -12.5t12.5 -32.5q0 -18 -12.5 -30.5t-30.5 -12.5h-310v-195h303q18 0 30.5 -12.5t12.5 -32.5q0 -17 -12.5 -30t-30.5 -13h-303v-208h310q18 0 30.5 -12.5
t12.5 -30.5zM418 740q0 -8 -6.5 -16t-19.5 -8q-11 0 -18 9l-78 99l-76 -98q-7 -9 -19 -9q-10 0 -18 6.5t-8 16.5q0 5 5 13l58 89q10 14 25 22.5t34 8.5q17 0 32 -8.5t24 -22.5l61 -89q4 -5 4 -13z" />
    <glyph glyph-name="Edieresis" unicode="&#xcb;" 
d="M527 45q0 -20 -12.5 -32.5t-30.5 -12.5h-344q-27 0 -46 19t-19 46v537q0 27 19 46t46 19h344q18 0 30.5 -12.5t12.5 -32.5q0 -18 -12.5 -30.5t-30.5 -12.5h-310v-195h303q18 0 30.5 -12.5t12.5 -32.5q0 -17 -12.5 -30t-30.5 -13h-303v-208h310q18 0 30.5 -12.5
t12.5 -30.5zM454 773q0 -23 -15.5 -38t-36.5 -15q-22 0 -37.5 15t-15.5 38q0 21 15.5 36.5t37.5 15.5q21 0 36.5 -15.5t15.5 -36.5zM246 773q0 -23 -15 -38t-37 -15t-37 15t-15 38q0 21 15 36.5t37 15.5t37 -15.5t15 -36.5z" />
    <glyph glyph-name="Igrave" unicode="&#xcc;" horiz-adv-x="248" 
d="M174 43q0 -20 -14.5 -34.5t-35.5 -14.5t-35 14.5t-14 34.5v582q0 20 14.5 34t36.5 14q20 0 34 -14t14 -34v-582v0zM157 741q0 -9 -6.5 -16.5t-17.5 -7.5q-7 0 -15 6l-117 101q-9 7 -9 20q0 11 8.5 19.5t21.5 8.5q12 0 20 -8l109 -107q6 -8 6 -16z" />
    <glyph glyph-name="Iacute" unicode="&#xcd;" horiz-adv-x="248" 
d="M174 43q0 -20 -14.5 -34.5t-35.5 -14.5t-35 14.5t-14 34.5v582q0 20 14.5 34t36.5 14q20 0 34 -14t14 -34v-582v0zM258 844q0 -13 -9 -20l-118 -101q-7 -6 -14 -6q-9 0 -16.5 7t-7.5 17t6 16l108 107q8 8 21 8q10 0 20 -8t10 -20z" />
    <glyph glyph-name="Icircumflex" unicode="&#xce;" horiz-adv-x="248" 
d="M174 43q0 -20 -14.5 -34.5t-35.5 -14.5t-35 14.5t-14 34.5v582q0 20 14.5 34t36.5 14q20 0 34 -14t14 -34v-582v0zM247 740q0 -8 -6.5 -16t-19.5 -8q-11 0 -18 9l-78 99l-76 -98q-7 -9 -19 -9q-10 0 -18 6.5t-8 16.5q0 5 5 13l58 89q10 14 25 22.5t34 8.5q17 0 32 -8.5
t24 -22.5l61 -89q4 -5 4 -13z" />
    <glyph glyph-name="Idieresis" unicode="&#xcf;" horiz-adv-x="248" 
d="M174 43q0 -20 -14.5 -34.5t-35.5 -14.5t-35 14.5t-14 34.5v582q0 20 14.5 34t36.5 14q20 0 34 -14t14 -34v-582v0zM282 773q0 -23 -15.5 -38t-36.5 -15q-22 0 -37.5 15t-15.5 38q0 21 15.5 36.5t37.5 15.5q21 0 36.5 -15.5t15.5 -36.5zM74 773q0 -23 -15 -38t-37 -15
t-37 15t-15 38q0 21 15 36.5t37 15.5t37 -15.5t15 -36.5z" />
    <glyph glyph-name="Eth" unicode="&#xd0;" horiz-adv-x="732" 
d="M685 333q0 -72 -25 -133t-70 -105.5t-109 -69.5t-142 -25h-172q-27 0 -46 19t-19 46v228h-63q-15 0 -25.5 11t-10.5 27q0 14 10.5 24.5t25.5 10.5h63v236q0 27 19 46t46 19h172q78 0 142 -25t109 -69.5t70 -106t25 -133.5zM583 333q0 51 -16 96t-47 78.5t-76.5 52.5
t-104.5 19h-138v-213h135q14 0 24 -10.5t10 -26.5q0 -15 -10 -25.5t-24 -10.5h-135v-205h138q58 0 103.5 19.5t76.5 52.5t47.5 77.5t16.5 95.5z" />
    <glyph glyph-name="Ntilde" unicode="&#xd1;" horiz-adv-x="714" 
d="M639 51q0 -11 -4.5 -21t-12.5 -18t-19 -13t-24 -5q-15 0 -28 6.5t-21 18.5l-356 487v-463q0 -20 -14.5 -34.5t-35.5 -14.5t-35 14.5t-14 34.5v569q0 12 4.5 23t13 19.5t20 13.5t26.5 5t29 -6.5t24 -20.5l348 -473v452q0 20 14.5 34t36.5 14q20 0 34 -14t14 -34v-574v0z
M512 833q-1 -22 -7.5 -42.5t-18.5 -36t-30 -24.5t-42 -9q-27 0 -43 13.5t-28 29.5t-22.5 29.5t-27.5 13.5q-16 0 -27.5 -13.5t-16.5 -43.5q-1 -11 -9.5 -18t-19.5 -7q-10 0 -16 7t-6 16q0 21 7 42t19.5 36.5t31 25t41.5 9.5q26 0 42 -13.5t27.5 -29t23 -29t28.5 -13.5
q16 0 27.5 13.5t15.5 42.5q2 11 10 18t19 7t16.5 -7.5t5.5 -16.5z" />
    <glyph glyph-name="Ograve" unicode="&#xd2;" horiz-adv-x="765" 
d="M718 333q0 -74 -24.5 -137.5t-69 -109.5t-106 -72t-136.5 -26q-74 0 -136 26t-106.5 72t-69 109.5t-24.5 137.5t24.5 137.5t69 109.5t106.5 72t136 26q75 0 136.5 -26t106 -72t69 -109.5t24.5 -137.5zM616 333q0 55 -17 102.5t-47.5 81.5t-73.5 53.5t-96 19.5
t-96.5 -19.5t-74 -53.5t-46.5 -81.5t-16 -102.5t16 -102t46.5 -81.5t74 -54t96.5 -19.5t96 19.5t73.5 54t47.5 81.5t17 102zM415 741q0 -9 -6.5 -16.5t-17.5 -7.5q-7 0 -15 6l-117 101q-9 7 -9 20q0 11 8.5 19.5t21.5 8.5q12 0 20 -8l109 -107q6 -8 6 -16z" />
    <glyph glyph-name="Oacute" unicode="&#xd3;" horiz-adv-x="765" 
d="M718 333q0 -74 -24.5 -137.5t-69 -109.5t-106 -72t-136.5 -26q-74 0 -136 26t-106.5 72t-69 109.5t-24.5 137.5t24.5 137.5t69 109.5t106.5 72t136 26q75 0 136.5 -26t106 -72t69 -109.5t24.5 -137.5zM616 333q0 55 -17 102.5t-47.5 81.5t-73.5 53.5t-96 19.5
t-96.5 -19.5t-74 -53.5t-46.5 -81.5t-16 -102.5t16 -102t46.5 -81.5t74 -54t96.5 -19.5t96 19.5t73.5 54t47.5 81.5t17 102zM516 844q0 -13 -9 -20l-118 -101q-7 -6 -14 -6q-9 0 -16.5 7t-7.5 17t6 16l108 107q8 8 21 8q10 0 20 -8t10 -20z" />
    <glyph glyph-name="Ocircumflex" unicode="&#xd4;" horiz-adv-x="765" 
d="M718 333q0 -74 -24.5 -137.5t-69 -109.5t-106 -72t-136.5 -26q-74 0 -136 26t-106.5 72t-69 109.5t-24.5 137.5t24.5 137.5t69 109.5t106.5 72t136 26q75 0 136.5 -26t106 -72t69 -109.5t24.5 -137.5zM616 333q0 55 -17 102.5t-47.5 81.5t-73.5 53.5t-96 19.5
t-96.5 -19.5t-74 -53.5t-46.5 -81.5t-16 -102.5t16 -102t46.5 -81.5t74 -54t96.5 -19.5t96 19.5t73.5 54t47.5 81.5t17 102zM505 740q0 -8 -6.5 -16t-19.5 -8q-11 0 -18 9l-78 99l-76 -98q-7 -9 -19 -9q-10 0 -18 6.5t-8 16.5q0 5 5 13l58 89q10 14 25 22.5t34 8.5
q17 0 32 -8.5t24 -22.5l61 -89q4 -5 4 -13z" />
    <glyph glyph-name="Otilde" unicode="&#xd5;" horiz-adv-x="765" 
d="M718 333q0 -74 -24.5 -137.5t-69 -109.5t-106 -72t-136.5 -26q-74 0 -136 26t-106.5 72t-69 109.5t-24.5 137.5t24.5 137.5t69 109.5t106.5 72t136 26q75 0 136.5 -26t106 -72t69 -109.5t24.5 -137.5zM616 333q0 55 -17 102.5t-47.5 81.5t-73.5 53.5t-96 19.5
t-96.5 -19.5t-74 -53.5t-46.5 -81.5t-16 -102.5t16 -102t46.5 -81.5t74 -54t96.5 -19.5t96 19.5t73.5 54t47.5 81.5t17 102zM539 833q-1 -22 -7.5 -42.5t-18.5 -36t-30 -24.5t-42 -9q-27 0 -43 13.5t-28 29.5t-22.5 29.5t-27.5 13.5q-16 0 -27.5 -13.5t-16.5 -43.5
q-1 -11 -9.5 -18t-19.5 -7q-10 0 -16 7t-6 16q0 21 7 42t19.5 36.5t31 25t41.5 9.5q26 0 42 -13.5t27.5 -29t23 -29t28.5 -13.5q16 0 27.5 13.5t15.5 42.5q2 11 10 18t19 7t16.5 -7.5t5.5 -16.5z" />
    <glyph glyph-name="Odieresis" unicode="&#xd6;" horiz-adv-x="765" 
d="M718 333q0 -74 -24.5 -137.5t-69 -109.5t-106 -72t-136.5 -26q-74 0 -136 26t-106.5 72t-69 109.5t-24.5 137.5t24.5 137.5t69 109.5t106.5 72t136 26q75 0 136.5 -26t106 -72t69 -109.5t24.5 -137.5zM616 333q0 55 -17 102.5t-47.5 81.5t-73.5 53.5t-96 19.5
t-96.5 -19.5t-74 -53.5t-46.5 -81.5t-16 -102.5t16 -102t46.5 -81.5t74 -54t96.5 -19.5t96 19.5t73.5 54t47.5 81.5t17 102zM538 773q0 -23 -15.5 -38t-36.5 -15q-22 0 -37.5 15t-15.5 38q0 21 15.5 36.5t37.5 15.5q21 0 36.5 -15.5t15.5 -36.5zM330 773q0 -23 -15 -38
t-37 -15t-37 15t-15 38q0 21 15 36.5t37 15.5t37 -15.5t15 -36.5z" />
    <glyph glyph-name="multiply" unicode="&#xd7;" horiz-adv-x="500" 
d="M428 186q0 -14 -10 -22.5t-20 -8.5q-12 0 -20 9l-128 128l-127 -128q-9 -9 -20 -9q-12 0 -21.5 9t-9.5 22q0 11 9 20l127 128l-127 127q-9 9 -9 20q0 12 8.5 21.5t21.5 9.5t21 -8l127 -128l128 128q8 8 19 8t21 -9t10 -22q0 -12 -8 -20l-127 -127l127 -128q8 -9 8 -20z
" />
    <glyph glyph-name="Oslash" unicode="&#xd8;" horiz-adv-x="765" 
d="M718 333q0 -74 -24.5 -137.5t-69 -109.5t-106 -72t-136.5 -26q-51 0 -94.5 11.5t-81.5 34.5l-21 -30q-8 -12 -23 -12q-13 0 -23 8.5t-10 21.5q0 8 6 17l21 31q-52 47 -81 114t-29 149q0 74 24.5 137.5t69 109.5t106.5 72t136 26q48 0 90 -11t79 -31l18 26q9 12 24 12
q13 0 22.5 -8.5t9.5 -21.5q0 -10 -5 -16l-18 -27q55 -47 85.5 -115.5t30.5 -152.5zM616 333q0 58 -18 106.5t-52 82.5l-287 -413q26 -16 56.5 -24.5t66.5 -8.5q53 0 96 19.5t73.5 54t47.5 81.5t17 102zM497 561q-24 14 -53 21.5t-62 7.5q-53 0 -96.5 -19.5t-74 -53.5
t-46.5 -81.5t-16 -102.5q0 -56 16.5 -103t46.5 -81z" />
    <glyph glyph-name="Ugrave" unicode="&#xd9;" horiz-adv-x="709" 
d="M634 262q0 -62 -17 -113t-52 -86.5t-87.5 -55t-122.5 -19.5q-71 0 -123.5 20t-87 55t-52 85.5t-17.5 112.5v364q0 20 14.5 34t36.5 14q20 0 34 -14t14 -34v-361q0 -86 46 -137t135 -51t134.5 51t45.5 137v361q0 20 14.5 34t36.5 14q20 0 34 -14t14 -34v-363v0zM387 741
q0 -9 -6.5 -16.5t-17.5 -7.5q-7 0 -15 6l-117 101q-9 7 -9 20q0 11 8.5 19.5t21.5 8.5q12 0 20 -8l109 -107q6 -8 6 -16z" />
    <glyph glyph-name="Uacute" unicode="&#xda;" horiz-adv-x="709" 
d="M634 262q0 -62 -17 -113t-52 -86.5t-87.5 -55t-122.5 -19.5q-71 0 -123.5 20t-87 55t-52 85.5t-17.5 112.5v364q0 20 14.5 34t36.5 14q20 0 34 -14t14 -34v-361q0 -86 46 -137t135 -51t134.5 51t45.5 137v361q0 20 14.5 34t36.5 14q20 0 34 -14t14 -34v-363v0zM488 844
q0 -13 -9 -20l-118 -101q-7 -6 -14 -6q-9 0 -16.5 7t-7.5 17t6 16l108 107q8 8 21 8q10 0 20 -8t10 -20z" />
    <glyph glyph-name="Ucircumflex" unicode="&#xdb;" horiz-adv-x="709" 
d="M634 262q0 -62 -17 -113t-52 -86.5t-87.5 -55t-122.5 -19.5q-71 0 -123.5 20t-87 55t-52 85.5t-17.5 112.5v364q0 20 14.5 34t36.5 14q20 0 34 -14t14 -34v-361q0 -86 46 -137t135 -51t134.5 51t45.5 137v361q0 20 14.5 34t36.5 14q20 0 34 -14t14 -34v-363v0zM478 740
q0 -8 -6.5 -16t-19.5 -8q-11 0 -18 9l-78 99l-76 -98q-7 -9 -19 -9q-10 0 -18 6.5t-8 16.5q0 5 5 13l58 89q10 14 25 22.5t34 8.5q17 0 32 -8.5t24 -22.5l61 -89q4 -5 4 -13z" />
    <glyph glyph-name="Udieresis" unicode="&#xdc;" horiz-adv-x="709" 
d="M634 262q0 -62 -17 -113t-52 -86.5t-87.5 -55t-122.5 -19.5q-71 0 -123.5 20t-87 55t-52 85.5t-17.5 112.5v364q0 20 14.5 34t36.5 14q20 0 34 -14t14 -34v-361q0 -86 46 -137t135 -51t134.5 51t45.5 137v361q0 20 14.5 34t36.5 14q20 0 34 -14t14 -34v-363v0zM512 773
q0 -23 -15.5 -38t-36.5 -15q-22 0 -37.5 15t-15.5 38q0 21 15.5 36.5t37.5 15.5q21 0 36.5 -15.5t15.5 -36.5zM304 773q0 -23 -15 -38t-37 -15t-37 15t-15 38q0 21 15 36.5t37 15.5t37 -15.5t15 -36.5z" />
    <glyph glyph-name="Yacute" unicode="&#xdd;" horiz-adv-x="631" 
d="M588 626q0 -14 -7 -25l-216 -321v-237q0 -20 -14 -34.5t-36 -14.5q-20 0 -34 14.5t-14 34.5v237l-217 322q-8 11 -8 24q0 17 12.5 32t34.5 15q12 0 23 -5.5t18 -15.5l186 -284l185 283q6 11 17 16t22 5q21 0 34.5 -14t13.5 -32zM449 844q0 -13 -9 -20l-118 -101
q-7 -6 -14 -6q-9 0 -16.5 7t-7.5 17t6 16l108 107q8 8 21 8q10 0 20 -8t10 -20z" />
    <glyph glyph-name="Thorn" unicode="&#xde;" horiz-adv-x="597" 
d="M568 345q0 -42 -14.5 -79t-42 -64.5t-67 -43.5t-89.5 -16h-181v-95q0 -20 -14.5 -34.5t-35.5 -14.5t-35 14.5t-14 34.5v574q0 20 14.5 34t36.5 14q20 0 34 -14t14 -34v-70h181q51 0 90.5 -16.5t66.5 -45t41.5 -65.5t14.5 -79zM466 345q0 53 -34.5 85.5t-89.5 32.5h-168
v-234h168q55 0 89.5 31.5t34.5 84.5z" />
    <glyph glyph-name="germandbls" unicode="&#xdf;" horiz-adv-x="609" 
d="M591 137q0 -30 -12 -57.5t-36.5 -47.5t-60 -32t-81.5 -12q-29 0 -54.5 4.5t-47 12.5t-38.5 19.5t-30 25.5q-11 11 -11 26t9.5 26t24.5 11q11 0 22 -8q23 -20 55 -33t70 -13q53 0 78.5 23.5t25.5 52.5q0 26 -21 40t-52 24t-67 18.5t-67 23.5t-52 41t-21 71q0 27 10.5 46.5
t26 35t33.5 27.5t33.5 23t26 23t10.5 26q0 16 -8.5 28t-21.5 19.5t-29.5 12t-33.5 4.5q-23 0 -43 -7.5t-35.5 -21t-24 -33t-8.5 -43.5v-455q0 -18 -13 -31t-32 -13q-18 0 -31 13t-13 31v455q0 38 14 71.5t39.5 58.5t63 39.5t84.5 14.5q36 0 69 -9t58.5 -26t40.5 -41.5
t15 -54.5q0 -28 -10.5 -47.5t-27 -34.5t-35 -26.5t-34.5 -24t-27 -26.5t-11 -32q0 -24 21 -36t52 -20.5t67.5 -17t67 -24.5t51.5 -44t21 -76z" />
    <glyph glyph-name="agrave" unicode="&#xe0;" horiz-adv-x="531" 
d="M460 38q0 -18 -13 -31t-32 -13q-13 0 -21.5 5.5t-13.5 14.5t-7 19.5t-2 20.5q-60 -66 -159 -66q-30 0 -60 10t-54 30t-39 50t-15 70q0 41 15 71t39 49.5t54 28.5t60 9q51 0 91 -15.5t68 -48.5v81q0 46 -33.5 71.5t-84.5 25.5q-67 0 -121 -42q-11 -8 -22 -8q-13 0 -25 9.5
t-12 25.5q0 12 9 23q35 35 85 51t99 16q39 0 74 -9t61.5 -29t42.5 -52t16 -78v-289zM371 106v82q-21 28 -54.5 42t-70.5 14q-49 0 -80.5 -26.5t-31.5 -71.5q0 -42 31.5 -68.5t80.5 -26.5q37 0 70.5 13.5t54.5 41.5zM298 574q0 -9 -6.5 -16.5t-17.5 -7.5q-7 0 -15 6l-117 101
q-9 7 -9 20q0 11 8.5 19.5t21.5 8.5q12 0 20 -8l109 -107q6 -8 6 -16z" />
    <glyph glyph-name="aacute" unicode="&#xe1;" horiz-adv-x="531" 
d="M460 38q0 -18 -13 -31t-32 -13q-13 0 -21.5 5.5t-13.5 14.5t-7 19.5t-2 20.5q-60 -66 -159 -66q-30 0 -60 10t-54 30t-39 50t-15 70q0 41 15 71t39 49.5t54 28.5t60 9q51 0 91 -15.5t68 -48.5v81q0 46 -33.5 71.5t-84.5 25.5q-67 0 -121 -42q-11 -8 -22 -8q-13 0 -25 9.5
t-12 25.5q0 12 9 23q35 35 85 51t99 16q39 0 74 -9t61.5 -29t42.5 -52t16 -78v-289zM371 106v82q-21 28 -54.5 42t-70.5 14q-49 0 -80.5 -26.5t-31.5 -71.5q0 -42 31.5 -68.5t80.5 -26.5q37 0 70.5 13.5t54.5 41.5zM399 677q0 -13 -9 -20l-118 -101q-7 -6 -14 -6
q-9 0 -16.5 7t-7.5 17t6 16l108 107q8 8 21 8q10 0 20 -8t10 -20z" />
    <glyph glyph-name="acircumflex" unicode="&#xe2;" horiz-adv-x="531" 
d="M460 38q0 -18 -13 -31t-32 -13q-13 0 -21.5 5.5t-13.5 14.5t-7 19.5t-2 20.5q-60 -66 -159 -66q-30 0 -60 10t-54 30t-39 50t-15 70q0 41 15 71t39 49.5t54 28.5t60 9q51 0 91 -15.5t68 -48.5v81q0 46 -33.5 71.5t-84.5 25.5q-67 0 -121 -42q-11 -8 -22 -8q-13 0 -25 9.5
t-12 25.5q0 12 9 23q35 35 85 51t99 16q39 0 74 -9t61.5 -29t42.5 -52t16 -78v-289zM371 106v82q-21 28 -54.5 42t-70.5 14q-49 0 -80.5 -26.5t-31.5 -71.5q0 -42 31.5 -68.5t80.5 -26.5q37 0 70.5 13.5t54.5 41.5zM388 573q0 -8 -6.5 -16t-19.5 -8q-11 0 -18 9l-78 99
l-76 -98q-7 -9 -19 -9q-10 0 -18 6.5t-8 16.5q0 5 5 13l58 89q10 14 25 22.5t34 8.5q17 0 32 -8.5t24 -22.5l61 -89q4 -5 4 -13z" />
    <glyph glyph-name="atilde" unicode="&#xe3;" horiz-adv-x="531" 
d="M460 38q0 -18 -13 -31t-32 -13q-13 0 -21.5 5.5t-13.5 14.5t-7 19.5t-2 20.5q-60 -66 -159 -66q-30 0 -60 10t-54 30t-39 50t-15 70q0 41 15 71t39 49.5t54 28.5t60 9q51 0 91 -15.5t68 -48.5v81q0 46 -33.5 71.5t-84.5 25.5q-67 0 -121 -42q-11 -8 -22 -8q-13 0 -25 9.5
t-12 25.5q0 12 9 23q35 35 85 51t99 16q39 0 74 -9t61.5 -29t42.5 -52t16 -78v-289zM371 106v82q-21 28 -54.5 42t-70.5 14q-49 0 -80.5 -26.5t-31.5 -71.5q0 -42 31.5 -68.5t80.5 -26.5q37 0 70.5 13.5t54.5 41.5zM423 666q-1 -22 -7.5 -42.5t-18.5 -36t-30 -24.5t-42 -9
q-27 0 -43 13.5t-28 29.5t-22.5 29.5t-27.5 13.5q-16 0 -27.5 -13.5t-16.5 -43.5q-1 -11 -9.5 -18t-19.5 -7q-10 0 -16 7t-6 16q0 21 7 42t19.5 36.5t31 25t41.5 9.5q26 0 42 -13.5t27.5 -29t23 -29t28.5 -13.5q16 0 27.5 13.5t15.5 42.5q2 11 10 18t19 7t16.5 -7.5
t5.5 -16.5z" />
    <glyph glyph-name="adieresis" unicode="&#xe4;" horiz-adv-x="531" 
d="M460 38q0 -18 -13 -31t-32 -13q-13 0 -21.5 5.5t-13.5 14.5t-7 19.5t-2 20.5q-60 -66 -159 -66q-30 0 -60 10t-54 30t-39 50t-15 70q0 41 15 71t39 49.5t54 28.5t60 9q51 0 91 -15.5t68 -48.5v81q0 46 -33.5 71.5t-84.5 25.5q-67 0 -121 -42q-11 -8 -22 -8q-13 0 -25 9.5
t-12 25.5q0 12 9 23q35 35 85 51t99 16q39 0 74 -9t61.5 -29t42.5 -52t16 -78v-289zM371 106v82q-21 28 -54.5 42t-70.5 14q-49 0 -80.5 -26.5t-31.5 -71.5q0 -42 31.5 -68.5t80.5 -26.5q37 0 70.5 13.5t54.5 41.5zM422 606q0 -23 -15.5 -38t-36.5 -15q-22 0 -37.5 15
t-15.5 38q0 21 15.5 36.5t37.5 15.5q21 0 36.5 -15.5t15.5 -36.5zM214 606q0 -23 -15 -38t-37 -15t-37 15t-15 38q0 21 15 36.5t37 15.5t37 -15.5t15 -36.5z" />
    <glyph glyph-name="aring" unicode="&#xe5;" horiz-adv-x="531" 
d="M460 38q0 -18 -13 -31t-32 -13q-13 0 -21.5 5.5t-13.5 14.5t-7 19.5t-2 20.5q-60 -66 -159 -66q-30 0 -60 10t-54 30t-39 50t-15 70q0 41 15 71t39 49.5t54 28.5t60 9q51 0 91 -15.5t68 -48.5v81q0 46 -33.5 71.5t-84.5 25.5q-67 0 -121 -42q-11 -8 -22 -8q-13 0 -25 9.5
t-12 25.5q0 12 9 23q35 35 85 51t99 16q39 0 74 -9t61.5 -29t42.5 -52t16 -78v-289zM371 106v82q-21 28 -54.5 42t-70.5 14q-49 0 -80.5 -26.5t-31.5 -71.5q0 -42 31.5 -68.5t80.5 -26.5q37 0 70.5 13.5t54.5 41.5zM367 640q0 -21 -8 -39t-21.5 -32t-32 -21.5t-38.5 -7.5
t-38.5 7.5t-32 21.5t-21.5 32t-8 39q0 20 8 38.5t21.5 32t32 22t38.5 8.5t38.5 -8.5t32 -22t21.5 -32t8 -38.5zM322 640q0 23 -15.5 39t-39.5 16q-23 0 -39 -16t-16 -39t16 -39.5t39 -16.5q24 0 39.5 16.5t15.5 39.5z" />
    <glyph glyph-name="ae" unicode="&#xe6;" horiz-adv-x="884" 
d="M841 259q0 -19 -13.5 -32.5t-32.5 -13.5h-313q3 -31 14.5 -58.5t31 -48t46.5 -32t61 -11.5q29 0 57 8.5t51 26.5q9 6 23 6t25.5 -9.5t11.5 -25.5q0 -12 -9 -22q-16 -16 -35.5 -27t-41.5 -18t-44 -10.5t-43 -3.5q-62 0 -111.5 26t-79.5 82q-27 -48 -80 -78t-119 -30
q-39 0 -74.5 10t-63 30t-43 50t-15.5 69q0 40 14 69.5t38.5 49.5t57 30t67.5 10q53 0 97 -15t75 -47v80q0 45 -35 70.5t-93 25.5q-37 0 -70 -10.5t-63 -32.5q-9 -7 -21 -7q-13 0 -25 9.5t-12 25.5q0 14 9 23q18 17 40.5 30t48 21t52 12t52.5 4q30 0 57.5 -6t50 -18
t38.5 -30.5t24 -44.5q12 21 29.5 38.5t39 31t49 21.5t60.5 8q82 0 136.5 -48.5t72.5 -131.5q3 -13 5.5 -27t2.5 -29zM755 276q0 24 -8 50t-24.5 47.5t-42 35.5t-62.5 14q-33 0 -58 -14t-42 -35t-26 -47t-10 -51h273zM393 177v10q-23 27 -59.5 42t-76.5 15q-55 0 -89 -24.5
t-34 -67.5q0 -42 34 -66t88 -24q30 0 55 10t43.5 26t28.5 37t10 42z" />
    <glyph glyph-name="ccedilla" unicode="&#xe7;" horiz-adv-x="496" 
d="M457 74q0 -14 -8 -22q-11 -14 -25.5 -25t-32.5 -18.5t-38.5 -13t-44.5 -6.5l-16 -41q16 10 37 10q29 0 47.5 -18t18.5 -50q0 -37 -31 -59t-75 -22q-16 0 -33.5 2.5t-33 8t-25.5 13t-10 18.5q0 10 7 16.5t16 6.5q6 0 9 -3q17 -10 34.5 -14.5t33.5 -4.5q23 0 40.5 10.5
t17.5 29.5q0 15 -8.5 23.5t-26.5 8.5q-12 0 -22.5 -7.5t-21.5 -7.5t-18 7.5t-7 17.5v4t1 4l18 48q-48 4 -88.5 25t-69 54.5t-44 77.5t-15.5 95q0 54 18 100.5t50 80.5t77 53t100 19q27 0 51 -4.5t44 -13t36.5 -20.5t29.5 -26q7 -10 7 -21q0 -17 -12.5 -28.5t-28.5 -11.5
t-28 11q-20 18 -43.5 26.5t-50.5 8.5q-37 0 -65.5 -13t-49.5 -36.5t-32 -55t-11 -69.5t11 -70t32 -55.5t49.5 -36.5t65.5 -13q55 0 94 36q12 9 28 9t29 -10.5t13 -27.5z" />
    <glyph glyph-name="egrave" unicode="&#xe8;" horiz-adv-x="560" 
d="M518 258q0 -18 -13.5 -31.5t-32.5 -13.5h-336q3 -31 15 -59t33.5 -48.5t50.5 -33t66 -12.5q31 0 62 10t58 30q9 5 20 5q12 0 24 -10t12 -26q0 -19 -14 -28q-36 -27 -79 -40t-92 -13q-54 0 -99.5 18.5t-79 51.5t-52 80t-18.5 104q0 52 18 98.5t50 80.5t76 54t97 20
q44 0 80.5 -13t65.5 -37t49 -57t30 -74q3 -12 6 -26.5t3 -29.5zM432 276q-1 24 -9.5 50t-26.5 47.5t-46 35.5t-67 14q-36 0 -63 -14t-45 -35t-28 -47t-11 -51h296zM316 574q0 -9 -6.5 -16.5t-17.5 -7.5q-7 0 -15 6l-117 101q-9 7 -9 20q0 11 8.5 19.5t21.5 8.5q12 0 20 -8
l109 -107q6 -8 6 -16z" />
    <glyph glyph-name="eacute" unicode="&#xe9;" horiz-adv-x="560" 
d="M518 258q0 -18 -13.5 -31.5t-32.5 -13.5h-336q3 -31 15 -59t33.5 -48.5t50.5 -33t66 -12.5q31 0 62 10t58 30q9 5 20 5q12 0 24 -10t12 -26q0 -19 -14 -28q-36 -27 -79 -40t-92 -13q-54 0 -99.5 18.5t-79 51.5t-52 80t-18.5 104q0 52 18 98.5t50 80.5t76 54t97 20
q44 0 80.5 -13t65.5 -37t49 -57t30 -74q3 -12 6 -26.5t3 -29.5zM432 276q-1 24 -9.5 50t-26.5 47.5t-46 35.5t-67 14q-36 0 -63 -14t-45 -35t-28 -47t-11 -51h296zM418 677q0 -13 -9 -20l-118 -101q-7 -6 -14 -6q-9 0 -16.5 7t-7.5 17t6 16l108 107q8 8 21 8q10 0 20 -8
t10 -20z" />
    <glyph glyph-name="ecircumflex" unicode="&#xea;" horiz-adv-x="560" 
d="M518 258q0 -18 -13.5 -31.5t-32.5 -13.5h-336q3 -31 15 -59t33.5 -48.5t50.5 -33t66 -12.5q31 0 62 10t58 30q9 5 20 5q12 0 24 -10t12 -26q0 -19 -14 -28q-36 -27 -79 -40t-92 -13q-54 0 -99.5 18.5t-79 51.5t-52 80t-18.5 104q0 52 18 98.5t50 80.5t76 54t97 20
q44 0 80.5 -13t65.5 -37t49 -57t30 -74q3 -12 6 -26.5t3 -29.5zM432 276q-1 24 -9.5 50t-26.5 47.5t-46 35.5t-67 14q-36 0 -63 -14t-45 -35t-28 -47t-11 -51h296zM406 573q0 -8 -6.5 -16t-19.5 -8q-11 0 -18 9l-78 99l-76 -98q-7 -9 -19 -9q-10 0 -18 6.5t-8 16.5q0 5 5 13
l58 89q10 14 25 22.5t34 8.5q17 0 32 -8.5t24 -22.5l61 -89q4 -5 4 -13z" />
    <glyph glyph-name="edieresis" unicode="&#xeb;" horiz-adv-x="560" 
d="M518 258q0 -18 -13.5 -31.5t-32.5 -13.5h-336q3 -31 15 -59t33.5 -48.5t50.5 -33t66 -12.5q31 0 62 10t58 30q9 5 20 5q12 0 24 -10t12 -26q0 -19 -14 -28q-36 -27 -79 -40t-92 -13q-54 0 -99.5 18.5t-79 51.5t-52 80t-18.5 104q0 52 18 98.5t50 80.5t76 54t97 20
q44 0 80.5 -13t65.5 -37t49 -57t30 -74q3 -12 6 -26.5t3 -29.5zM432 276q-1 24 -9.5 50t-26.5 47.5t-46 35.5t-67 14q-36 0 -63 -14t-45 -35t-28 -47t-11 -51h296zM441 606q0 -23 -15.5 -38t-36.5 -15q-22 0 -37.5 15t-15.5 38q0 21 15.5 36.5t37.5 15.5q21 0 36.5 -15.5
t15.5 -36.5zM233 606q0 -23 -15 -38t-37 -15t-37 15t-15 38q0 21 15 36.5t37 15.5t37 -15.5t15 -36.5z" />
    <glyph glyph-name="igrave" unicode="&#xec;" horiz-adv-x="233" 
d="M161 38q0 -18 -13 -31t-32 -13q-18 0 -31 13t-13 31v408q0 17 13 30t33 13q17 0 30 -13t13 -30v-408v0zM149 574q0 -9 -6.5 -16.5t-17.5 -7.5q-7 0 -15 6l-117 101q-9 7 -9 20q0 11 8.5 19.5t21.5 8.5q12 0 20 -8l109 -107q6 -8 6 -16z" />
    <glyph glyph-name="iacute" unicode="&#xed;" horiz-adv-x="233" 
d="M161 38q0 -18 -13 -31t-32 -13q-18 0 -31 13t-13 31v408q0 17 13 30t33 13q17 0 30 -13t13 -30v-408v0zM250 677q0 -13 -9 -20l-118 -101q-7 -6 -14 -6q-9 0 -16.5 7t-7.5 17t6 16l108 107q8 8 21 8q10 0 20 -8t10 -20z" />
    <glyph glyph-name="icircumflex" unicode="&#xee;" horiz-adv-x="233" 
d="M161 38q0 -18 -13 -31t-32 -13q-18 0 -31 13t-13 31v408q0 17 13 30t33 13q17 0 30 -13t13 -30v-408v0zM238 573q0 -8 -6.5 -16t-19.5 -8q-11 0 -18 9l-78 99l-76 -98q-7 -9 -19 -9q-10 0 -18 6.5t-8 16.5q0 5 5 13l58 89q10 14 25 22.5t34 8.5q17 0 32 -8.5t24 -22.5
l61 -89q4 -5 4 -13z" />
    <glyph glyph-name="idieresis" unicode="&#xef;" horiz-adv-x="233" 
d="M161 38q0 -18 -13 -31t-32 -13q-18 0 -31 13t-13 31v408q0 17 13 30t33 13q17 0 30 -13t13 -30v-408v0zM274 606q0 -23 -15.5 -38t-36.5 -15q-22 0 -37.5 15t-15.5 38q0 21 15.5 36.5t37.5 15.5q21 0 36.5 -15.5t15.5 -36.5zM66 606q0 -23 -15 -38t-37 -15t-37 15t-15 38
q0 21 15 36.5t37 15.5t37 -15.5t15 -36.5z" />
    <glyph glyph-name="eth" unicode="&#xf0;" 
d="M530 248q0 -56 -17 -104t-48.5 -82.5t-76.5 -54t-102 -19.5q-55 0 -99.5 18t-77 51t-49.5 77.5t-17 96.5t16 96.5t45.5 77t69.5 51t87 18.5q49 0 88 -21t71 -69q-26 49 -67.5 90.5t-91.5 78.5l-123 -54q-6 -3 -10 -3q-9 0 -17 7.5t-8 19.5q0 15 15 23l94 41q-8 5 -18 11
t-18.5 13.5t-14 16t-5.5 18.5q0 19 13.5 31.5t31.5 12.5q9 0 22.5 -7t28 -16.5t28.5 -20.5t24 -19l87 38q5 2 9 2q9 0 16.5 -6t7.5 -18q0 -17 -14 -23l-62 -28q40 -35 73.5 -73.5t57.5 -81t37.5 -89.5t13.5 -100zM437 231q0 33 -10 62.5t-29.5 52t-47 36t-64.5 13.5
q-36 0 -64 -13.5t-47.5 -36t-29.5 -52t-10 -62.5t10 -62.5t29.5 -52t47.5 -36t64 -13.5q37 0 64.5 13.5t47 36t29.5 52t10 62.5z" />
    <glyph glyph-name="ntilde" unicode="&#xf1;" horiz-adv-x="559" 
d="M487 38q0 -18 -13 -31t-32 -13q-18 0 -31 13t-13 31v272q0 60 -28 83t-75 23q-21 0 -41 -6t-37.5 -15.5t-32 -22.5t-23.5 -27v-307q0 -18 -13 -31t-32 -13q-18 0 -31 13t-13 31v408q0 17 13 30t33 13q17 0 30 -13t13 -30v-31q12 15 30 29t40 25.5t47.5 18.5t53.5 7
q77 0 116 -39.5t39 -115.5v-302v0zM437 666q-1 -22 -7.5 -42.5t-18.5 -36t-30 -24.5t-42 -9q-27 0 -43 13.5t-28 29.5t-22.5 29.5t-27.5 13.5q-16 0 -27.5 -13.5t-16.5 -43.5q-1 -11 -9.5 -18t-19.5 -7q-10 0 -16 7t-6 16q0 21 7 42t19.5 36.5t31 25t41.5 9.5q26 0 42 -13.5
t27.5 -29t23 -29t28.5 -13.5q16 0 27.5 13.5t15.5 42.5q2 11 10 18t19 7t16.5 -7.5t5.5 -16.5z" />
    <glyph glyph-name="ograve" unicode="&#xf2;" 
d="M530 242q0 -53 -17 -99t-48.5 -80.5t-76.5 -54.5t-102 -20q-56 0 -101 20t-77 54.5t-48.5 80.5t-16.5 99q0 52 16.5 98t48.5 80.5t77 54.5t101 20q57 0 102 -20t76.5 -54.5t48.5 -80.5t17 -98zM437 242q0 35 -10 66t-29.5 55t-47 38.5t-64.5 14.5q-36 0 -64 -14.5
t-47.5 -38.5t-29.5 -55t-10 -66t10 -66.5t29.5 -55.5t47.5 -38.5t64 -14.5q37 0 64.5 14.5t47 38.5t29.5 55.5t10 66.5zM318 574q0 -9 -6.5 -16.5t-17.5 -7.5q-7 0 -15 6l-117 101q-9 7 -9 20q0 11 8.5 19.5t21.5 8.5q12 0 20 -8l109 -107q6 -8 6 -16z" />
    <glyph glyph-name="oacute" unicode="&#xf3;" 
d="M530 242q0 -53 -17 -99t-48.5 -80.5t-76.5 -54.5t-102 -20q-56 0 -101 20t-77 54.5t-48.5 80.5t-16.5 99q0 52 16.5 98t48.5 80.5t77 54.5t101 20q57 0 102 -20t76.5 -54.5t48.5 -80.5t17 -98zM437 242q0 35 -10 66t-29.5 55t-47 38.5t-64.5 14.5q-36 0 -64 -14.5
t-47.5 -38.5t-29.5 -55t-10 -66t10 -66.5t29.5 -55.5t47.5 -38.5t64 -14.5q37 0 64.5 14.5t47 38.5t29.5 55.5t10 66.5zM420 677q0 -13 -9 -20l-118 -101q-7 -6 -14 -6q-9 0 -16.5 7t-7.5 17t6 16l108 107q8 8 21 8q10 0 20 -8t10 -20z" />
    <glyph glyph-name="ocircumflex" unicode="&#xf4;" 
d="M530 242q0 -53 -17 -99t-48.5 -80.5t-76.5 -54.5t-102 -20q-56 0 -101 20t-77 54.5t-48.5 80.5t-16.5 99q0 52 16.5 98t48.5 80.5t77 54.5t101 20q57 0 102 -20t76.5 -54.5t48.5 -80.5t17 -98zM437 242q0 35 -10 66t-29.5 55t-47 38.5t-64.5 14.5q-36 0 -64 -14.5
t-47.5 -38.5t-29.5 -55t-10 -66t10 -66.5t29.5 -55.5t47.5 -38.5t64 -14.5q37 0 64.5 14.5t47 38.5t29.5 55.5t10 66.5zM407 573q0 -8 -6.5 -16t-19.5 -8q-11 0 -18 9l-78 99l-76 -98q-7 -9 -19 -9q-10 0 -18 6.5t-8 16.5q0 5 5 13l58 89q10 14 25 22.5t34 8.5q17 0 32 -8.5
t24 -22.5l61 -89q4 -5 4 -13z" />
    <glyph glyph-name="otilde" unicode="&#xf5;" 
d="M530 242q0 -53 -17 -99t-48.5 -80.5t-76.5 -54.5t-102 -20q-56 0 -101 20t-77 54.5t-48.5 80.5t-16.5 99q0 52 16.5 98t48.5 80.5t77 54.5t101 20q57 0 102 -20t76.5 -54.5t48.5 -80.5t17 -98zM437 242q0 35 -10 66t-29.5 55t-47 38.5t-64.5 14.5q-36 0 -64 -14.5
t-47.5 -38.5t-29.5 -55t-10 -66t10 -66.5t29.5 -55.5t47.5 -38.5t64 -14.5q37 0 64.5 14.5t47 38.5t29.5 55.5t10 66.5zM443 666q-1 -22 -7.5 -42.5t-18.5 -36t-30 -24.5t-42 -9q-27 0 -43 13.5t-28 29.5t-22.5 29.5t-27.5 13.5q-16 0 -27.5 -13.5t-16.5 -43.5
q-1 -11 -9.5 -18t-19.5 -7q-10 0 -16 7t-6 16q0 21 7 42t19.5 36.5t31 25t41.5 9.5q26 0 42 -13.5t27.5 -29t23 -29t28.5 -13.5q16 0 27.5 13.5t15.5 42.5q2 11 10 18t19 7t16.5 -7.5t5.5 -16.5z" />
    <glyph glyph-name="odieresis" unicode="&#xf6;" 
d="M530 242q0 -53 -17 -99t-48.5 -80.5t-76.5 -54.5t-102 -20q-56 0 -101 20t-77 54.5t-48.5 80.5t-16.5 99q0 52 16.5 98t48.5 80.5t77 54.5t101 20q57 0 102 -20t76.5 -54.5t48.5 -80.5t17 -98zM437 242q0 35 -10 66t-29.5 55t-47 38.5t-64.5 14.5q-36 0 -64 -14.5
t-47.5 -38.5t-29.5 -55t-10 -66t10 -66.5t29.5 -55.5t47.5 -38.5t64 -14.5q37 0 64.5 14.5t47 38.5t29.5 55.5t10 66.5zM442 606q0 -23 -15.5 -38t-36.5 -15q-22 0 -37.5 15t-15.5 38q0 21 15.5 36.5t37.5 15.5q21 0 36.5 -15.5t15.5 -36.5zM234 606q0 -23 -15 -38t-37 -15
t-37 15t-15 38q0 21 15 36.5t37 15.5t37 -15.5t15 -36.5z" />
    <glyph glyph-name="divide" unicode="&#xf7;" horiz-adv-x="511" 
d="M255 573q22 0 36.5 -14t14.5 -36q0 -21 -14.5 -35.5t-36.5 -14.5q-21 0 -35 14.5t-14 35.5q0 22 14 36t35 14zM484 338q0 -13 -8.5 -21.5t-20.5 -8.5h-399q-12 0 -20.5 8.5t-8.5 21.5t8.5 21t20.5 8h399q12 0 20.5 -8t8.5 -21zM306 147q0 -20 -14.5 -35t-36.5 -15
q-21 0 -35 15t-14 35q0 21 14 36t35 15q22 0 36.5 -15t14.5 -36z" />
    <glyph glyph-name="oslash" unicode="&#xf8;" 
d="M115 -3q-6 -8 -16 -8q-9 0 -16.5 7t-7.5 17q0 9 5 14l28 36q-32 35 -48.5 80.5t-16.5 98.5q0 52 16.5 98t48.5 80.5t77 54.5t101 20q41 0 75.5 -10.5t62.5 -29.5l25 30q5 8 16 8q9 0 17 -6.5t8 -16.5q0 -9 -5 -15l-25 -31q34 -35 52 -81.5t18 -100.5q0 -53 -17 -99
t-48.5 -80.5t-76.5 -54.5t-102 -20q-83 0 -143 44zM197 97q18 -14 40 -22t49 -8q37 0 64.5 14.5t47 38.5t29.5 55.5t10 66.5q0 65 -34 113zM286 416q-36 0 -64 -14.5t-47.5 -38.5t-29.5 -55t-10 -66q0 -62 30 -109l205 256q-35 27 -84 27z" />
    <glyph glyph-name="ugrave" unicode="&#xf9;" horiz-adv-x="559" 
d="M487 38q0 -18 -13 -31t-32 -13q-18 0 -31 13t-13 31v28q-27 -31 -71.5 -54.5t-100.5 -23.5q-77 0 -115.5 38.5t-38.5 114.5v305q0 17 13 30t33 13q17 0 30 -13t13 -30v-274q0 -30 7 -50t21 -32.5t33 -17.5t42 -5q42 0 78 21t56 48v310q0 17 13 30t33 13q17 0 30 -13
t13 -30v-408v0zM311 574q0 -9 -6.5 -16.5t-17.5 -7.5q-7 0 -15 6l-117 101q-9 7 -9 20q0 11 8.5 19.5t21.5 8.5q12 0 20 -8l109 -107q6 -8 6 -16z" />
    <glyph glyph-name="uacute" unicode="&#xfa;" horiz-adv-x="559" 
d="M487 38q0 -18 -13 -31t-32 -13q-18 0 -31 13t-13 31v28q-27 -31 -71.5 -54.5t-100.5 -23.5q-77 0 -115.5 38.5t-38.5 114.5v305q0 17 13 30t33 13q17 0 30 -13t13 -30v-274q0 -30 7 -50t21 -32.5t33 -17.5t42 -5q42 0 78 21t56 48v310q0 17 13 30t33 13q17 0 30 -13
t13 -30v-408v0zM412 677q0 -13 -9 -20l-118 -101q-7 -6 -14 -6q-9 0 -16.5 7t-7.5 17t6 16l108 107q8 8 21 8q10 0 20 -8t10 -20z" />
    <glyph glyph-name="ucircumflex" unicode="&#xfb;" horiz-adv-x="559" 
d="M487 38q0 -18 -13 -31t-32 -13q-18 0 -31 13t-13 31v28q-27 -31 -71.5 -54.5t-100.5 -23.5q-77 0 -115.5 38.5t-38.5 114.5v305q0 17 13 30t33 13q17 0 30 -13t13 -30v-274q0 -30 7 -50t21 -32.5t33 -17.5t42 -5q42 0 78 21t56 48v310q0 17 13 30t33 13q17 0 30 -13
t13 -30v-408v0zM400 573q0 -8 -6.5 -16t-19.5 -8q-11 0 -18 9l-78 99l-76 -98q-7 -9 -19 -9q-10 0 -18 6.5t-8 16.5q0 5 5 13l58 89q10 14 25 22.5t34 8.5q17 0 32 -8.5t24 -22.5l61 -89q4 -5 4 -13z" />
    <glyph glyph-name="udieresis" unicode="&#xfc;" horiz-adv-x="559" 
d="M487 38q0 -18 -13 -31t-32 -13q-18 0 -31 13t-13 31v28q-27 -31 -71.5 -54.5t-100.5 -23.5q-77 0 -115.5 38.5t-38.5 114.5v305q0 17 13 30t33 13q17 0 30 -13t13 -30v-274q0 -30 7 -50t21 -32.5t33 -17.5t42 -5q42 0 78 21t56 48v310q0 17 13 30t33 13q17 0 30 -13
t13 -30v-408v0zM436 606q0 -23 -15.5 -38t-36.5 -15q-22 0 -37.5 15t-15.5 38q0 21 15.5 36.5t37.5 15.5q21 0 36.5 -15.5t15.5 -36.5zM228 606q0 -23 -15 -38t-37 -15t-37 15t-15 38q0 21 15 36.5t37 15.5t37 -15.5t15 -36.5z" />
    <glyph glyph-name="yacute" unicode="&#xfd;" horiz-adv-x="496" 
d="M477 445q0 -9 -3 -15l-216 -523q-23 -55 -61.5 -79t-87.5 -24q-12 0 -23.5 2t-20.5 6t-14.5 12t-5.5 20q0 17 12 28.5t28 11.5q7 0 12 -0.5t11 0.5q21 0 37 10t28 36l28 64l-179 436q-3 7 -3 15q0 16 12.5 30t32.5 14q13 0 24 -7.5t17 -20.5l143 -358l142 358
q5 13 16.5 20.5t25.5 7.5q20 0 32.5 -13.5t12.5 -30.5zM381 677q0 -13 -9 -20l-118 -101q-7 -6 -14 -6q-9 0 -16.5 7t-7.5 17t6 16l108 107q8 8 21 8q10 0 20 -8t10 -20z" />
    <glyph glyph-name="thorn" unicode="&#xfe;" horiz-adv-x="575" 
d="M535 242q0 -59 -16 -106.5t-44.5 -80t-68 -50t-86.5 -17.5q-48 0 -89 21t-70 61v-213q0 -17 -13 -30t-32 -13q-18 0 -31 13t-13 30v769q0 17 13 30t33 13q17 0 30 -13t13 -30v-212q26 36 68 58.5t91 22.5q47 0 86.5 -17.5t68 -49.5t44.5 -79.5t16 -106.5zM441 242
q0 38 -10 69.5t-29 55t-46 36.5t-61 13q-41 0 -78 -21t-56 -50v-206q19 -29 56 -50.5t78 -21.5q34 0 61 13t46 36.5t29 55.5t10 70z" />
    <glyph glyph-name="ydieresis" unicode="&#xff;" horiz-adv-x="496" 
d="M477 445q0 -9 -3 -15l-216 -523q-23 -55 -61.5 -79t-87.5 -24q-12 0 -23.5 2t-20.5 6t-14.5 12t-5.5 20q0 17 12 28.5t28 11.5q7 0 12 -0.5t11 0.5q21 0 37 10t28 36l28 64l-179 436q-3 7 -3 15q0 16 12.5 30t32.5 14q13 0 24 -7.5t17 -20.5l143 -358l142 358
q5 13 16.5 20.5t25.5 7.5q20 0 32.5 -13.5t12.5 -30.5zM404 606q0 -23 -15.5 -38t-36.5 -15q-22 0 -37.5 15t-15.5 38q0 21 15.5 36.5t37.5 15.5q21 0 36.5 -15.5t15.5 -36.5zM196 606q0 -23 -15 -38t-37 -15t-37 15t-15 38q0 21 15 36.5t37 15.5t37 -15.5t15 -36.5z" />
    <glyph glyph-name="Dcroat" unicode="&#x110;" horiz-adv-x="732" 
d="M685 333q0 -72 -25 -133t-70 -105.5t-109 -69.5t-142 -25h-172q-27 0 -46 19t-19 46v228h-63q-15 0 -25.5 11t-10.5 27q0 14 10.5 24.5t25.5 10.5h63v236q0 27 19 46t46 19h172q78 0 142 -25t109 -69.5t70 -106t25 -133.5zM583 333q0 51 -16 96t-47 78.5t-76.5 52.5
t-104.5 19h-138v-213h135q14 0 24 -10.5t10 -26.5q0 -15 -10 -25.5t-24 -10.5h-135v-205h138q58 0 103.5 19.5t76.5 52.5t47.5 77.5t16.5 95.5z" />
    <glyph glyph-name="dotlessi" unicode="&#x131;" horiz-adv-x="233" 
d="M161 38q0 -18 -13 -31t-32 -13q-18 0 -31 13t-13 31v408q0 17 13 30t33 13q17 0 30 -13t13 -30v-408v0z" />
    <glyph glyph-name="OE" unicode="&#x152;" horiz-adv-x="1099" 
d="M1054 45q0 -20 -12.5 -32.5t-29.5 -12.5h-346q-21 0 -34 8.5t-20.5 23.5t-9.5 35t-1 42q-18 -31 -43.5 -53t-55.5 -37.5t-63 -23t-66 -7.5q-73 0 -133 26t-103 72t-67 109t-24 138t24 138t67 108.5t103 71.5t133 26q33 0 66 -7.5t63 -22.5t55.5 -37t43.5 -52q-1 21 1 41
t9.5 35t21 24t33.5 9h346q17 0 29.5 -12.5t12.5 -32.5q0 -18 -12.5 -30.5t-29.5 -12.5h-312v-195h305q17 0 29.5 -12.5t12.5 -32.5q0 -17 -12.5 -30t-29.5 -13h-305v-208h312q17 0 29.5 -12.5t12.5 -30.5zM601 225v216q-28 74 -85.5 111t-130.5 37q-55 0 -98.5 -19.5
t-74.5 -53.5t-47 -81t-16 -102q0 -56 16 -103t47 -81t74.5 -53.5t98.5 -19.5q73 0 130.5 37.5t85.5 111.5z" />
    <glyph glyph-name="oe" unicode="&#x153;" horiz-adv-x="954" 
d="M910 259q0 -19 -13.5 -32.5t-32.5 -13.5h-333q2 -31 14.5 -59t33 -48.5t50 -33t66.5 -12.5q31 0 62 10t58 30q10 5 20 5q12 0 24 -10t12 -26t-10 -25q-17 -14 -37 -25t-42.5 -17.5t-47 -10t-47.5 -3.5q-46 0 -79.5 12.5t-58 32t-41 42t-26.5 43.5q-10 -20 -25.5 -42.5
t-39 -42t-56 -32.5t-75.5 -13q-56 0 -101 20t-77 54.5t-48.5 80.5t-16.5 99q0 52 16.5 98t48.5 80.5t77 54.5t101 20q43 0 76 -13.5t56.5 -33t39.5 -42t25 -41.5q9 19 25 41.5t40 42t56 33t74 13.5q86 0 144.5 -49t79.5 -132q3 -12 5.5 -26t2.5 -29zM826 276q-1 24 -10 50
t-27 47.5t-46 35.5t-66 14q-37 0 -63.5 -14t-45 -35t-28 -47t-10.5 -51h296zM437 242q0 36 -10.5 67.5t-30 55t-47 37.5t-63.5 14q-35 0 -63 -14t-47.5 -37.5t-30 -55t-10.5 -67.5t10.5 -68.5t30 -56t47.5 -37.5t63 -14q36 0 63.5 14t47 37.5t30 56t10.5 68.5z" />
    <glyph glyph-name="Scaron" unicode="&#x160;" horiz-adv-x="590" 
d="M548 189q0 -39 -14 -75.5t-44.5 -64t-78.5 -44.5t-115 -17q-36 0 -71 6t-66 17t-57 26.5t-45 34.5q-12 13 -12 31q0 19 13 34t33 15q7 0 14.5 -2t13.5 -7q35 -29 80.5 -48.5t100.5 -19.5q41 0 69 10t45 25t24.5 33.5t7.5 35.5q0 30 -16.5 49t-44 32t-62.5 22t-72.5 19.5
t-72.5 23.5t-62.5 34t-44.5 52t-17 76q0 41 17.5 76t48.5 60.5t74.5 39.5t95.5 14q31 0 62 -5t59.5 -14t53.5 -22.5t43 -30.5q13 -13 13 -31q0 -19 -14 -32.5t-33 -13.5q-16 0 -27 9q-37 27 -79 40t-86 13q-56 0 -91 -26.5t-35 -69.5q0 -26 17 -42.5t44.5 -28.5t62.5 -21
t72 -19t72.5 -24.5t62.5 -36.5t44 -54t17 -79zM411 849q0 -8 -4 -12l-61 -89q-9 -15 -24 -23t-34 -8q-17 0 -32 8t-25 23l-58 89q-4 4 -4 12t6.5 16t18.5 8t19 -9l76 -99l78 99q7 9 18 9q10 0 18 -6.5t8 -17.5z" />
    <glyph glyph-name="scaron" unicode="&#x161;" horiz-adv-x="468" 
d="M426 136q0 -30 -13 -57.5t-37.5 -47.5t-61 -31.5t-84.5 -11.5q-25 0 -50.5 3.5t-49 11.5t-45 19.5t-38.5 28.5q-11 9 -11 24q0 16 12 26.5t27 10.5q13 0 23 -7q27 -20 62.5 -33t73.5 -13q52 0 78.5 21t26.5 54q0 26 -21.5 40t-54.5 23t-71.5 17.5t-71.5 24t-54.5 42
t-21.5 72.5q0 28 12 54t35.5 45.5t58 31t78.5 11.5q26 0 50 -4t45.5 -11t39.5 -18t33 -25q9 -9 9 -22q0 -15 -10.5 -25t-24.5 -10q-13 0 -21 7q-23 16 -54 26.5t-66 10.5q-46 0 -72.5 -19.5t-26.5 -48.5q0 -24 21.5 -36.5t55 -21.5t71.5 -17.5t71 -24.5t55 -44t22 -76z
M355 682q0 -8 -4 -12l-61 -89q-9 -15 -24 -23t-34 -8q-17 0 -32 8t-25 23l-58 89q-4 4 -4 12t6.5 16t18.5 8t19 -9l76 -99l78 99q7 9 18 9q10 0 18 -6.5t8 -17.5z" />
    <glyph glyph-name="Ydieresis" unicode="&#x178;" horiz-adv-x="631" 
d="M588 626q0 -14 -7 -25l-216 -321v-237q0 -20 -14 -34.5t-36 -14.5q-20 0 -34 14.5t-14 34.5v237l-217 322q-8 11 -8 24q0 17 12.5 32t34.5 15q12 0 23 -5.5t18 -15.5l186 -284l185 283q6 11 17 16t22 5q21 0 34.5 -14t13.5 -32zM473 773q0 -23 -15.5 -38t-36.5 -15
q-22 0 -37.5 15t-15.5 38q0 21 15.5 36.5t37.5 15.5q21 0 36.5 -15.5t15.5 -36.5zM265 773q0 -23 -15 -38t-37 -15t-37 15t-15 38q0 21 15 36.5t37 15.5t37 -15.5t15 -36.5z" />
    <glyph glyph-name="Zcaron" unicode="&#x17d;" horiz-adv-x="587" 
d="M546 45q0 -20 -12.5 -32.5t-30.5 -12.5h-410q-20 0 -36 15.5t-16 39.5q0 19 11 33l353 491h-322q-18 0 -30.5 13t-12.5 32q0 18 12.5 30.5t30.5 12.5h404q20 0 35.5 -15.5t15.5 -39.5q0 -19 -11 -34l-353 -490h329q18 0 30.5 -12.5t12.5 -30.5zM414 849q0 -8 -4 -12
l-61 -89q-9 -15 -24 -23t-34 -8q-17 0 -32 8t-25 23l-58 89q-4 4 -4 12t6.5 16t18.5 8t19 -9l76 -99l78 99q7 9 18 9q10 0 18 -6.5t8 -17.5z" />
    <glyph glyph-name="zcaron" unicode="&#x17e;" horiz-adv-x="474" 
d="M430 40q0 -17 -10.5 -28.5t-26.5 -11.5h-307q-17 0 -29.5 12.5t-12.5 32.5q0 8 3 15.5t7 13.5l248 331h-221q-16 0 -27 11.5t-11 28.5q0 16 11 27t27 11h304q15 0 27.5 -12t12.5 -32q0 -16 -9 -28l-251 -334h228q16 0 26.5 -10.5t10.5 -26.5zM356 682q0 -8 -4 -12
l-61 -89q-9 -15 -24 -23t-34 -8q-17 0 -32 8t-25 23l-58 89q-4 4 -4 12t6.5 16t18.5 8t19 -9l76 -99l78 99q7 9 18 9q10 0 18 -6.5t8 -17.5z" />
    <glyph glyph-name="florin" unicode="&#x192;" horiz-adv-x="437" 
d="M445 623q0 -8 -3 -16t-8 -14t-12.5 -10t-16.5 -4q-10 0 -20.5 5t-23.5 5q-33 0 -58.5 -22t-34.5 -63l-39 -174h100q16 0 27 -12t11 -29t-11 -28t-27 -11h-117l-85 -381q-3 -17 -16.5 -27.5t-30.5 -10.5q-21 0 -35 13.5t-14 33.5v5.5t1 5.5l79 361h-31q-16 0 -27.5 11.5
t-11.5 29.5q0 16 11.5 27.5t27.5 11.5h48l44 193q8 36 24.5 64t40 48t53 31t62.5 11q14 0 30.5 -2.5t30.5 -8.5t23 -16.5t9 -26.5z" />
    <glyph glyph-name="circumflex" unicode="&#x2c6;" horiz-adv-x="274" 
d="M258 573q0 -8 -6.5 -16t-19.5 -8q-11 0 -18 9l-78 99l-76 -98q-7 -9 -19 -9q-10 0 -18 6.5t-8 16.5q0 5 5 13l58 89q10 14 25 22.5t34 8.5q17 0 32 -8.5t24 -22.5l61 -89q4 -5 4 -13z" />
    <glyph glyph-name="caron" unicode="&#x2c7;" horiz-adv-x="274" 
d="M261 682q0 -8 -4 -12l-61 -89q-9 -15 -24 -23t-34 -8q-17 0 -32 8t-25 23l-58 89q-4 4 -4 12t6.5 16t18.5 8t19 -9l76 -99l78 99q7 9 18 9q10 0 18 -6.5t8 -17.5z" />
    <glyph glyph-name="ring" unicode="&#x2da;" horiz-adv-x="200" 
d="M200 640q0 -21 -8 -39t-21.5 -32t-32 -21.5t-38.5 -7.5t-38.5 7.5t-32 21.5t-21.5 32t-8 39q0 20 8 38.5t21.5 32t32 22t38.5 8.5t38.5 -8.5t32 -22t21.5 -32t8 -38.5zM155 640q0 23 -15.5 39t-39.5 16q-23 0 -39 -16t-16 -39t16 -39.5t39 -16.5q24 0 39.5 16.5
t15.5 39.5z" />
    <glyph glyph-name="tilde" unicode="&#x2dc;" horiz-adv-x="317" 
d="M315 666q-1 -22 -7.5 -42.5t-18.5 -36t-30 -24.5t-42 -9q-27 0 -43 13.5t-28 29.5t-22.5 29.5t-27.5 13.5q-16 0 -27.5 -13.5t-16.5 -43.5q-1 -11 -9.5 -18t-19.5 -7q-10 0 -16 7t-6 16q0 21 7 42t19.5 36.5t31 25t41.5 9.5q26 0 42 -13.5t27.5 -29t23 -29t28.5 -13.5
q16 0 27.5 13.5t15.5 42.5q2 11 10 18t19 7t16.5 -7.5t5.5 -16.5z" />
    <glyph glyph-name="endash" unicode="&#x2013;" horiz-adv-x="593" 
d="M569 243q0 -17 -11 -28.5t-27 -11.5h-469q-17 0 -27.5 11.5t-10.5 28.5q0 16 10.5 27t27.5 11h469q16 0 27 -11t11 -27z" />
    <glyph glyph-name="emdash" unicode="&#x2014;" horiz-adv-x="833" 
d="M809 243q0 -17 -11 -28.5t-27 -11.5h-709q-17 0 -27.5 11.5t-10.5 28.5q0 16 10.5 27t27.5 11h709q16 0 27 -11t11 -27z" />
    <glyph glyph-name="quoteleft" unicode="&#x2018;" horiz-adv-x="237" 
d="M175 496q0 -25 -17 -43t-43 -18q-13 0 -26 5.5t-23 16t-15.5 26t-5.5 35.5q0 42 20.5 81.5t53.5 68.5q7 6 16 6q11 0 19.5 -7.5t8.5 -18.5q0 -12 -8 -19q-19 -17 -32.5 -38t-16.5 -41q2 1 6.5 1.5t8.5 0.5q24 0 39 -15.5t15 -40.5z" />
    <glyph glyph-name="quoteright" unicode="&#x2019;" horiz-adv-x="237" 
d="M187 594q0 -42 -20.5 -82t-53.5 -68q-8 -6 -17 -6q-10 0 -19 7t-9 18q0 12 8 20q19 17 32.5 38t16.5 41q-2 -1 -6.5 -2t-8.5 -1q-23 0 -38 16t-15 41t17 43t42 18q14 0 26.5 -5.5t22.5 -16.5t16 -26t6 -35z" />
    <glyph glyph-name="quotesinglbase" unicode="&#x201a;" horiz-adv-x="237" 
d="M187 31q0 -42 -20.5 -82t-53.5 -68q-8 -7 -17 -7q-10 0 -19 7.5t-9 18.5t8 20q19 16 32.5 37t16.5 41q-2 -1 -6.5 -1.5t-8.5 -0.5q-23 0 -38 15.5t-15 41.5q0 25 17 43t42 18q14 0 26.5 -5.5t22.5 -16.5t16 -26.5t6 -34.5z" />
    <glyph glyph-name="quotedblleft" unicode="&#x201c;" horiz-adv-x="409" 
d="M351 496q0 -25 -17.5 -43t-42.5 -18q-14 0 -26.5 5.5t-22.5 16t-15.5 26t-5.5 35.5q0 42 20.5 81.5t52.5 68.5q8 6 17 6q11 0 19.5 -8t8.5 -18q0 -12 -8 -19q-19 -17 -32.5 -38t-16.5 -41q2 1 6.5 1.5t8.5 0.5q24 0 39 -15.5t15 -40.5zM179 496q0 -25 -17 -43t-43 -18
q-13 0 -26 5.5t-22.5 16t-15.5 26t-6 35.5q0 42 20.5 81.5t53.5 68.5q8 6 17 6q10 0 19 -7.5t9 -18.5q0 -12 -9 -19q-18 -17 -32 -38t-17 -41q2 1 7 1.5t9 0.5q23 0 38 -15.5t15 -40.5z" />
    <glyph glyph-name="quotedblright" unicode="&#x201d;" horiz-adv-x="409" 
d="M358 594q0 -42 -20 -82t-53 -68q-8 -6 -17 -6q-11 0 -19.5 7t-8.5 18q0 12 8 20q19 17 32.5 38t16.5 41q-2 -1 -6.5 -2t-8.5 -1q-23 0 -38.5 16t-15.5 41t17.5 43t42.5 18q14 0 26.5 -5.5t22.5 -16.5t15.5 -26t5.5 -35zM187 594q0 -42 -20.5 -82t-53.5 -68q-8 -6 -17 -6
q-10 0 -19 7t-9 18q0 12 9 20q18 17 32 38t16 41q-1 -1 -6 -2t-9 -1q-23 0 -38 16t-15 41t17 43t42 18q14 0 27 -5.5t22.5 -16.5t15.5 -26t6 -35z" />
    <glyph glyph-name="quotedblbase" unicode="&#x201e;" horiz-adv-x="409" 
d="M358 31q0 -42 -20 -82t-53 -68q-8 -7 -17 -7q-11 0 -19.5 7.5t-8.5 18.5t8 20q19 16 32.5 37t16.5 41q-2 -1 -6.5 -1.5t-8.5 -0.5q-23 0 -38.5 15.5t-15.5 41.5q0 25 17.5 43t42.5 18q14 0 26.5 -5.5t22.5 -16.5t15.5 -26.5t5.5 -34.5zM187 31q0 -42 -20.5 -82t-53.5 -68
q-8 -7 -17 -7q-11 0 -19.5 7.5t-8.5 18.5t8 20q19 16 32.5 37t16.5 41q-2 -1 -6.5 -1.5t-8.5 -0.5q-23 0 -38 15.5t-15 41.5q0 25 17 43t42 18q14 0 26.5 -5.5t22.5 -16.5t16 -26.5t6 -34.5z" />
    <glyph glyph-name="dagger" unicode="&#x2020;" horiz-adv-x="267" 
d="M251 554q0 -12 -7 -18.5t-16 -5.5l-72 3l3 -186q0 -11 -7.5 -18.5t-19.5 -7.5q-11 0 -18 7.5t-7 18.5l4 186l-72 -3q-9 -1 -16 5.5t-7 18.5q0 10 7 16t16 6l72 -2l-4 83q-1 11 7 18.5t20 7.5q11 0 18 -7.5t7 -18.5l-3 -83l72 2q9 0 16 -6t7 -16z" />
    <glyph glyph-name="daggerdbl" unicode="&#x2021;" horiz-adv-x="267" 
d="M251 304q0 -11 -7 -16.5t-16 -5.5l-72 2l3 -84q0 -11 -7.5 -18.5t-19.5 -7.5q-11 0 -18 7.5t-7 18.5l3 84l-71 -2q-9 -1 -16 5.5t-7 18.5q0 10 7 16t16 6l71 -3v208l-71 -3q-9 -1 -16 5.5t-7 18.5q0 10 7 16t16 6l71 -2l-3 83q0 11 7.5 18.5t19.5 7.5q11 0 18 -7.5
t7 -18.5l-3 -83l72 2q9 0 16 -6t7 -18q0 -11 -7 -17t-16 -5l-72 3v-208l72 3q9 0 16 -6t7 -18z" />
    <glyph glyph-name="bullet" unicode="&#x2022;" horiz-adv-x="358" 
d="M291 242q0 -23 -9 -43t-24 -34.5t-35 -23.5t-43 -9t-43 9t-35 23.5t-24 34.5t-9 43t9 43t24 35t35 24t43 9t43 -9t35 -24t24 -35t9 -43z" />
    <glyph glyph-name="ellipsis" unicode="&#x2026;" horiz-adv-x="711" 
d="M654 52q0 -13 -5 -24t-13.5 -19.5t-19.5 -13.5t-24 -5q-12 0 -23.5 5t-19.5 13.5t-13.5 19.5t-5.5 24q0 25 18.5 43.5t43.5 18.5q26 0 44 -18.5t18 -43.5zM417 52q0 -13 -5 -24t-13.5 -19.5t-20 -13.5t-24.5 -5q-12 0 -23.5 5t-19.5 13.5t-13 19.5t-5 24q0 25 18 43.5
t43 18.5q26 0 44.5 -18.5t18.5 -43.5zM179 52q0 -13 -5 -24t-13 -19.5t-19.5 -13.5t-23.5 -5q-13 0 -24.5 5t-19.5 13.5t-12.5 19.5t-4.5 24q0 25 17.5 43.5t43.5 18.5q25 0 43 -18.5t18 -43.5z" />
    <glyph glyph-name="perthousand" unicode="&#x2030;" horiz-adv-x="1093" 
d="M192 677q37 0 67 -12.5t51.5 -35t33.5 -53.5t12 -66t-12 -65t-33.5 -51.5t-51.5 -34t-67 -12.5q-36 0 -66.5 12.5t-51.5 34t-32.5 51.5t-11.5 65t11.5 66t32.5 53.5t51.5 35t66.5 12.5zM545 318q37 0 67 -12.5t51.5 -35t33.5 -53t12 -65.5t-12 -65t-33.5 -52t-51.5 -34.5
t-67 -12.5q-36 0 -66 12.5t-51.5 34.5t-33 52t-11.5 65t11.5 65.5t33 53t51.5 35t66 12.5zM192 400q42 0 69 31t27 79q0 50 -27 82t-69 32t-68 -32t-26 -82q0 -48 26 -79t68 -31zM545 41q42 0 69 31t27 80t-27 81t-69 32t-68.5 -32t-26.5 -81t26.5 -80t68.5 -31zM900 318
q37 0 67 -12.5t51.5 -35t33.5 -53t12 -65.5t-12 -65t-33.5 -52t-51.5 -34.5t-67 -12.5q-36 0 -66 12.5t-51.5 34.5t-33 52t-11.5 65t11.5 65.5t33 53t51.5 35t66 12.5zM900 41q43 0 69.5 31t26.5 80t-26.5 81t-69.5 32q-42 0 -68 -32t-26 -81t26 -80t68 -31zM192 4
q-8 -11 -20 -11q-11 0 -19 7.5t-8 17.5q0 8 5 14l402 630q7 11 21 11q10 0 17.5 -8t7.5 -18q0 -7 -3 -12z" />
    <glyph glyph-name="guilsinglleft" unicode="&#x2039;" horiz-adv-x="306" 
d="M242 90q0 -13 -9 -23.5t-23 -10.5q-15 0 -23 11l-114 127q-18 21 -18 48q0 28 19 49l113 125q8 10 22 10q12 0 22.5 -9t10.5 -23q0 -12 -7 -20l-119 -131l119 -133q7 -10 7 -20z" />
    <glyph glyph-name="guilsinglright" unicode="&#x203a;" horiz-adv-x="306" 
d="M251 242q0 -27 -18 -48l-113 -127q-9 -11 -23 -11q-13 0 -23 9.5t-10 23.5q0 12 8 21l118 133l-118 131q-8 8 -8 19q0 12 8.5 22.5t23.5 10.5q14 0 24 -10l113 -125q18 -22 18 -49z" />
    <glyph glyph-name="Euro" unicode="&#x20ac;" horiz-adv-x="699" 
d="M414 678q78 0 134.5 -28.5t94.5 -70.5q11 -14 11 -32q0 -19 -13 -32.5t-33 -13.5q-10 0 -19 3.5t-16 12.5q-29 33 -71.5 53t-87.5 20q-40 0 -75 -11.5t-64.5 -31.5t-51.5 -49t-35 -64h265q12 0 20 -8.5t8 -21.5q0 -12 -8 -20t-20 -8h-280q-2 -10 -2.5 -21t-0.5 -22
q0 -10 0.5 -20t2.5 -21h280q12 0 20 -8t8 -22q0 -12 -8 -20t-20 -8h-265q13 -36 35 -65t51.5 -49.5t64.5 -32t75 -11.5q45 0 86.5 18.5t72.5 53.5q7 8 16 12t19 4q20 0 33 -13.5t13 -32.5q0 -9 -3 -17t-9 -14q-38 -43 -94 -71t-134 -28q-60 0 -114 17.5t-98 49.5t-75 77.5
t-46 101.5h-30q-13 0 -21 8.5t-8 21.5q0 12 8 20t21 8h19q-1 11 -1.5 21t-0.5 20t0.5 21.5t1.5 21.5h-19q-13 0 -21 8.5t-8 21.5q0 12 8 20t21 8h30q15 55 46.5 100t75 77.5t97.5 49.5t114 17z" />
    <glyph glyph-name="trademark" unicode="&#x2122;" horiz-adv-x="454" 
d="M419 454q0 -13 -15 -13q-13 0 -13 13v175l-70 -168q-3 -7 -9 -7t-9 8l-70 167v-175q0 -13 -15 -13q-13 0 -13 13v194q0 8 7 16t18 8q16 0 22 -14l60 -151l60 150q6 15 22 15q11 0 18 -6.5t7 -17.5v-194zM175 655q0 -6 -3.5 -10t-8.5 -4h-56v-187q0 -13 -15 -13
q-13 0 -13 13v187h-56q-5 0 -8.5 4t-3.5 10q0 5 3.5 8.5t8.5 3.5h140q5 0 8.5 -3.5t3.5 -8.5z" />
    <glyph glyph-name="minus" unicode="&#x2212;" horiz-adv-x="500" 
d="M477 339q0 -13 -8.5 -22t-19.5 -9h-397q-12 0 -20.5 9t-8.5 22q0 12 8.5 20.5t20.5 8.5h397q11 0 19.5 -8.5t8.5 -20.5z" />
    </font>
</defs>
</svg>
